<?xml version="1.0" encoding="UTF-8" standalone="no"?>
<!-- Created with Inkscape (http://www.inkscape.org/) -->

<svg
   width="1400"
   height="600"
   viewBox="0 0 370.41666 158.75"
   version="1.1"
   id="svg1234">
  <g
     id="layer1"
     transform="translate(0,-138.25)">
    <path
       style="fill:#666666;fill-opacity:1;stroke-width:0.26458332"
       d="m 194.28054,162.71705 c 3.1237,0 5.85209,1.88278 7.37051,3.49338 l 3.03245,-2.27059 c 0.11406,-0.0853 0.24312,-0.12312 0.36875,-0.12312 0.33905,0 0.65217,0.27437 0.57374,0.62686 l -0.8403,3.77338 0.83998,3.77307 c 0.0784,0.35249 -0.23499,0.62687 -0.57374,0.62687 -0.12562,0 -0.25468,-0.0378 -0.36874,-0.12313 l -3.03245,-2.27059 c -1.51811,1.61092 -4.2465,3.4937 -7.3702,3.4937 -4.77306,0 -8.64237,-4.39993 -8.64237,-5.49992 0,-1.09998 3.86931,-5.49991 8.64237,-5.49991 z m 0,9.99984 c 2.68808,0 5.19398,-1.64247 6.64271,-3.17932 l 0.61249,-0.64968 0.71467,0.53499 2.13528,1.59904 -0.57593,-2.58746 -0.0484,-0.21718 0.0484,-0.21719 0.57593,-2.58746 -2.13528,1.59904 -0.71467,0.53499 -0.61249,-0.64968 c -1.44873,-1.53747 -3.95463,-3.17995 -6.64271,-3.17995 -3.9237,0 -7.26302,3.47901 -7.62676,4.49993 0.36374,1.02093 3.70306,4.49993 7.62676,4.49993 z m -2.64246,-5.24992 c 0.41405,0 0.74998,0.33562 0.74998,0.74999 0,0.41406 -0.33593,0.74999 -0.74998,0.74999 -0.41406,0 -0.74999,-0.33593 -0.74999,-0.74999 0,-0.41437 0.33593,-0.74999 0.74999,-0.74999 z"
       id="path3047" />
    <g
       transform="matrix(0.36783021,0,0,-0.36783021,216.18689,231.24624)"
       id="g10"
       style="fill:#120136;fill-opacity:1;stroke-width:0.95907778">
      <g
         style="fill:#035aa6;fill-opacity:1;stroke-width:0.95907778"
         transform="matrix(0.71166319,0,0,0.71166319,-1.1190879,-12.931869)"
         id="g4622">
        <g
           style="fill:#035aa6;fill-opacity:1;stroke-width:0.95907778"
           id="g70"
           transform="translate(36.0391,98.8568)">
          <path
             d="m 0,0 c -15.435,0 -27.992,-12.557 -27.992,-27.992 0,-15.435 12.557,-27.992 27.992,-27.992 3.957,0 7.795,0.82 11.407,2.44 l 0.043,0.018 v 19.036 l 0.526,-0.14 c 1.934,-0.517 3.93,-0.828 5.933,-0.922 l 0.076,-0.004 v 4.289 l -0.068,0.003 c -2.577,0.138 -5.284,0.751 -8.045,1.822 l -0.254,0.099 c -1.58,0.626 -2.379,1.024 -2.412,1.04 l -0.105,0.053 v -22.362 l -0.298,-0.09 c -3.755,-1.129 -7.776,-1.3 -11.627,-0.502 l -0.333,0.07 v 12.303 h -4.349 v -10.888 l -0.597,0.282 c -8.267,3.904 -13.608,12.322 -13.608,21.445 0,2.813 0.517,5.557 1.466,8.129 0.018,0.049 0.038,0.096 0.056,0.145 0.162,0.43 0.334,0.855 0.521,1.274 0.128,0.292 0.26,0.582 0.4,0.868 0.061,0.123 0.125,0.244 0.187,0.367 0.177,0.344 0.361,0.684 0.554,1.019 0.035,0.06 0.069,0.121 0.104,0.18 2.021,3.445 4.89,6.325 8.316,8.374 -2.366,-7.461 -1.544,-15.72 2.485,-22.616 l 0.021,0.021 v -0.021 H 0 v 4.349 h -7.049 c -2.975,6.592 -2.767,14.266 0.59,20.718 1.461,0.415 2.98,0.696 4.542,0.824 0.01,10e-4 0.021,10e-4 0.032,0.002 0.636,0.051 1.278,0.085 1.927,0.085 13.1,0 23.718,-10.619 23.718,-23.718 0,-1.092 -0.062,-1.882 -0.181,-2.423 -0.522,-5.08 -2.67,-9.857 -6.196,-13.662 v -5.833 c 6.749,5.359 10.609,13.321 10.609,21.918 C 27.992,-12.557 15.435,0 0,0"
             style="fill:#035aa6;fill-opacity:1;fill-rule:nonzero;stroke:none;stroke-width:0.95907778"
             id="path72" />
        </g>
        <g
           style="fill:#035aa6;fill-opacity:1;stroke-width:0.95907778"
           id="g74"
           transform="translate(43.1396,78.6004)">
          <path
             d="m 0,0 c 0,-1.199 0.975,-2.174 2.174,-2.174 1.2,0 2.175,0.975 2.175,2.174 0,1.199 -0.975,2.175 -2.175,2.175 C 0.975,2.175 0,1.199 0,0"
             style="fill:#035aa6;fill-opacity:1;fill-rule:nonzero;stroke:none;stroke-width:0.95907778"
             id="path76"/>
        </g>
      </g>
   </g>
    <path
       id="path3093"
       d="m 277.6947,211.81673 c 3.1237,0 5.85209,1.88278 7.37051,3.49338 l 3.03245,-2.27059 c 0.11406,-0.0853 0.24312,-0.12312 0.36875,-0.12312 0.33905,0 0.65217,0.27437 0.57374,0.62686 l -0.8403,3.77338 0.83998,3.77307 c 0.0784,0.35249 -0.23499,0.62687 -0.57374,0.62687 -0.12562,0 -0.25468,-0.0378 -0.36874,-0.12313 l -3.03245,-2.27059 c -1.51811,1.61092 -4.2465,3.4937 -7.3702,3.4937 -4.77306,0 -8.64237,-4.39993 -8.64237,-5.49992 0,-1.09998 3.86931,-5.49991 8.64237,-5.49991 z m 0,9.99984 c 2.68808,0 5.19398,-1.64247 6.64271,-3.17932 l 0.61249,-0.64968 0.71467,0.53499 2.13528,1.59904 -0.57593,-2.58746 -0.0484,-0.21718 0.0484,-0.21719 0.57593,-2.58746 -2.13528,1.59904 -0.71467,0.53499 -0.61249,-0.64968 c -1.44873,-1.53747 -3.95463,-3.17995 -6.64271,-3.17995 -3.9237,0 -7.26302,3.47901 -7.62676,4.49993 0.36374,1.02093 3.70306,4.49993 7.62676,4.49993 z m -2.64246,-5.24992 c 0.41405,0 0.74998,0.33562 0.74998,0.74999 0,0.41406 -0.33593,0.74999 -0.74998,0.74999 -0.41406,0 -0.74999,-0.33593 -0.74999,-0.74999 0,-0.41437 0.33593,-0.74999 0.74999,-0.74999 z"
       style="fill:#666666;fill-opacity:1;stroke-width:0.26458332" />
    <path
       style="fill:#666666;fill-opacity:1;stroke-width:0.26458332"
       d="m 263.76028,224.64567 c 3.1237,0 5.85209,1.88278 7.37051,3.49338 l 3.03245,-2.27059 c 0.11406,-0.0853 0.24312,-0.12312 0.36875,-0.12312 0.33905,0 0.65217,0.27437 0.57374,0.62686 l -0.8403,3.77338 0.83998,3.77307 c 0.0784,0.35249 -0.23499,0.62687 -0.57374,0.62687 -0.12562,0 -0.25468,-0.0378 -0.36874,-0.12313 l -3.03245,-2.27059 c -1.51811,1.61092 -4.2465,3.4937 -7.3702,3.4937 -4.77306,0 -8.64237,-4.39993 -8.64237,-5.49992 0,-1.09998 3.86931,-5.49991 8.64237,-5.49991 z m 0,9.99984 c 2.68808,0 5.19398,-1.64247 6.64271,-3.17932 l 0.61249,-0.64968 0.71467,0.53499 2.13528,1.59904 -0.57593,-2.58746 -0.0484,-0.21718 0.0484,-0.21719 0.57593,-2.58746 -2.13528,1.59904 -0.71467,0.53499 -0.61249,-0.64968 c -1.44873,-1.53747 -3.95463,-3.17995 -6.64271,-3.17995 -3.9237,0 -7.26302,3.47901 -7.62676,4.49993 0.36374,1.02093 3.70306,4.49993 7.62676,4.49993 z m -2.64246,-5.24992 c 0.41405,0 0.74998,0.33562 0.74998,0.74999 0,0.41406 -0.33593,0.74999 -0.74998,0.74999 -0.41406,0 -0.74999,-0.33593 -0.74999,-0.74999 0,-0.41437 0.33593,-0.74999 0.74999,-0.74999 z"
       id="path3095" />
    <path
       id="path3097"
       d="m 263.76028,198.71634 c 3.1237,0 5.85209,1.88278 7.37051,3.49338 l 3.03245,-2.27059 c 0.11406,-0.0853 0.24312,-0.12312 0.36875,-0.12312 0.33905,0 0.65217,0.27437 0.57374,0.62686 l -0.8403,3.77338 0.83998,3.77307 c 0.0784,0.35249 -0.23499,0.62687 -0.57374,0.62687 -0.12562,0 -0.25468,-0.0378 -0.36874,-0.12313 l -3.03245,-2.27059 c -1.51811,1.61092 -4.2465,3.4937 -7.3702,3.4937 -4.77306,0 -8.64237,-4.39993 -8.64237,-5.49992 0,-1.09998 3.86931,-5.49991 8.64237,-5.49991 z m 0,9.99984 c 2.68808,0 5.19398,-1.64247 6.64271,-3.17932 l 0.61249,-0.64968 0.71467,0.53499 2.13528,1.59904 -0.57593,-2.58746 -0.0484,-0.21718 0.0484,-0.21719 0.57593,-2.58746 -2.13528,1.59904 -0.71467,0.53499 -0.61249,-0.64968 c -1.44873,-1.53747 -3.95463,-3.17995 -6.64271,-3.17995 -3.9237,0 -7.26302,3.47901 -7.62676,4.49993 0.36374,1.02093 3.70306,4.49993 7.62676,4.49993 z m -2.64246,-5.24992 c 0.41405,0 0.74998,0.33562 0.74998,0.74999 0,0.41406 -0.33593,0.74999 -0.74998,0.74999 -0.41406,0 -0.74999,-0.33593 -0.74999,-0.74999 0,-0.41437 0.33593,-0.74999 0.74999,-0.74999 z"
       style="fill:#666666;fill-opacity:1;stroke-width:0.26458332" />
    <path
       style="fill:#666666;fill-opacity:1;stroke-width:0.26458332"
       d="m 249.11952,211.81673 c 3.1237,0 5.85209,1.88278 7.37051,3.49338 l 3.03245,-2.27059 c 0.11406,-0.0853 0.24312,-0.12312 0.36875,-0.12312 0.33905,0 0.65217,0.27437 0.57374,0.62686 l -0.8403,3.77338 0.83998,3.77307 c 0.0784,0.35249 -0.23499,0.62687 -0.57374,0.62687 -0.12562,0 -0.25468,-0.0378 -0.36874,-0.12313 l -3.03245,-2.27059 c -1.51811,1.61092 -4.2465,3.4937 -7.3702,3.4937 -4.77306,0 -8.64237,-4.39993 -8.64237,-5.49992 0,-1.09998 3.86931,-5.49991 8.64237,-5.49991 z m 0,9.99984 c 2.68808,0 5.19398,-1.64247 6.64271,-3.17932 l 0.61249,-0.64968 0.71467,0.53499 2.13528,1.59904 -0.57593,-2.58746 -0.0484,-0.21718 0.0484,-0.21719 0.57593,-2.58746 -2.13528,1.59904 -0.71467,0.53499 -0.61249,-0.64968 c -1.44873,-1.53747 -3.95463,-3.17995 -6.64271,-3.17995 -3.9237,0 -7.26302,3.47901 -7.62676,4.49993 0.36374,1.02093 3.70306,4.49993 7.62676,4.49993 z m -2.64246,-5.24992 c 0.41405,0 0.74998,0.33562 0.74998,0.74999 0,0.41406 -0.33593,0.74999 -0.74998,0.74999 -0.41406,0 -0.74999,-0.33593 -0.74999,-0.74999 0,-0.41437 0.33593,-0.74999 0.74999,-0.74999 z"
       id="path3099" />
    <path
       id="path3101"
       d="m 235.1851,224.64567 c 3.1237,0 5.85209,1.88278 7.37051,3.49338 l 3.03245,-2.27059 c 0.11406,-0.0853 0.24312,-0.12312 0.36875,-0.12312 0.33905,0 0.65217,0.27437 0.57374,0.62686 l -0.8403,3.77338 0.83998,3.77307 c 0.0784,0.35249 -0.23499,0.62687 -0.57374,0.62687 -0.12562,0 -0.25468,-0.0378 -0.36874,-0.12313 l -3.03245,-2.27059 c -1.51811,1.61092 -4.2465,3.4937 -7.3702,3.4937 -4.77306,0 -8.64237,-4.39993 -8.64237,-5.49992 0,-1.09998 3.86931,-5.49991 8.64237,-5.49991 z m 0,9.99984 c 2.68808,0 5.19398,-1.64247 6.64271,-3.17932 l 0.61249,-0.64968 0.71467,0.53499 2.13528,1.59904 -0.57593,-2.58746 -0.0484,-0.21718 0.0484,-0.21719 0.57593,-2.58746 -2.13528,1.59904 -0.71467,0.53499 -0.61249,-0.64968 c -1.44873,-1.53747 -3.95463,-3.17995 -6.64271,-3.17995 -3.9237,0 -7.26302,3.47901 -7.62676,4.49993 0.36374,1.02093 3.70306,4.49993 7.62676,4.49993 z m -2.64246,-5.24992 c 0.41405,0 0.74998,0.33562 0.74998,0.74999 0,0.41406 -0.33593,0.74999 -0.74998,0.74999 -0.41406,0 -0.74999,-0.33593 -0.74999,-0.74999 0,-0.41437 0.33593,-0.74999 0.74999,-0.74999 z"
       style="fill:#666666;fill-opacity:1;stroke-width:0.26458332" />
    <path
       style="fill:#666666;fill-opacity:1;stroke-width:0.26458332"
       d="m 235.1851,198.71634 c 3.1237,0 5.85209,1.88278 7.37051,3.49338 l 3.03245,-2.27059 c 0.11406,-0.0853 0.24312,-0.12312 0.36875,-0.12312 0.33905,0 0.65217,0.27437 0.57374,0.62686 l -0.8403,3.77338 0.83998,3.77307 c 0.0784,0.35249 -0.23499,0.62687 -0.57374,0.62687 -0.12562,0 -0.25468,-0.0378 -0.36874,-0.12313 l -3.03245,-2.27059 c -1.51811,1.61092 -4.2465,3.4937 -7.3702,3.4937 -4.77306,0 -8.64237,-4.39993 -8.64237,-5.49992 0,-1.09998 3.86931,-5.49991 8.64237,-5.49991 z m 0,9.99984 c 2.68808,0 5.19398,-1.64247 6.64271,-3.17932 l 0.61249,-0.64968 0.71467,0.53499 2.13528,1.59904 -0.57593,-2.58746 -0.0484,-0.21718 0.0484,-0.21719 0.57593,-2.58746 -2.13528,1.59904 -0.71467,0.53499 -0.61249,-0.64968 c -1.44873,-1.53747 -3.95463,-3.17995 -6.64271,-3.17995 -3.9237,0 -7.26302,3.47901 -7.62676,4.49993 0.36374,1.02093 3.70306,4.49993 7.62676,4.49993 z m -2.64246,-5.24992 c 0.41405,0 0.74998,0.33562 0.74998,0.74999 0,0.41406 -0.33593,0.74999 -0.74998,0.74999 -0.41406,0 -0.74999,-0.33593 -0.74999,-0.74999 0,-0.41437 0.33593,-0.74999 0.74999,-0.74999 z"
       id="path3103" />
    <path
       id="path3105"
       d="m 223.71936,185.35823 c 3.1237,0 5.85209,1.88278 7.37051,3.49338 l 3.03245,-2.27059 c 0.11406,-0.0853 0.24312,-0.12312 0.36875,-0.12312 0.33905,0 0.65217,0.27437 0.57374,0.62686 l -0.8403,3.77338 0.83998,3.77307 c 0.0784,0.35249 -0.23499,0.62687 -0.57374,0.62687 -0.12562,0 -0.25468,-0.0378 -0.36874,-0.12313 l -3.03245,-2.27059 c -1.51811,1.61092 -4.2465,3.4937 -7.3702,3.4937 -4.77306,0 -8.64237,-4.39993 -8.64237,-5.49992 0,-1.09998 3.86931,-5.49991 8.64237,-5.49991 z m 0,9.99984 c 2.68808,0 5.19398,-1.64247 6.64271,-3.17932 l 0.61249,-0.64968 0.71467,0.53499 2.13528,1.59904 -0.57593,-2.58746 -0.0484,-0.21718 0.0484,-0.21719 0.57593,-2.58746 -2.13528,1.59904 -0.71467,0.53499 -0.61249,-0.64968 c -1.44873,-1.53747 -3.95463,-3.17995 -6.64271,-3.17995 -3.9237,0 -7.26302,3.47901 -7.62676,4.49993 0.36374,1.02093 3.70306,4.49993 7.62676,4.49993 z m -2.64246,-5.24992 c 0.41405,0 0.74998,0.33562 0.74998,0.74999 0,0.41406 -0.33593,0.74999 -0.74998,0.74999 -0.41406,0 -0.74999,-0.33593 -0.74999,-0.74999 0,-0.41437 0.33593,-0.74999 0.74999,-0.74999 z"
       style="fill:#666666;fill-opacity:1;stroke-width:0.26458332" />
    <path
       style="fill:#666666;fill-opacity:1;stroke-width:0.26458332"
       d="m 209.78494,198.18717 c 3.1237,0 5.85209,1.88278 7.37051,3.49338 l 3.03245,-2.27059 c 0.11406,-0.0853 0.24312,-0.12312 0.36875,-0.12312 0.33905,0 0.65217,0.27437 0.57374,0.62686 l -0.8403,3.77338 0.83998,3.77307 c 0.0784,0.35249 -0.23499,0.62687 -0.57374,0.62687 -0.12562,0 -0.25468,-0.0378 -0.36874,-0.12313 l -3.03245,-2.27059 c -1.51811,1.61092 -4.2465,3.4937 -7.3702,3.4937 -4.77306,0 -8.64237,-4.39993 -8.64237,-5.49992 0,-1.09998 3.86931,-5.49991 8.64237,-5.49991 z m 0,9.99984 c 2.68808,0 5.19398,-1.64247 6.64271,-3.17932 l 0.61249,-0.64968 0.71467,0.53499 2.13528,1.59904 -0.57593,-2.58746 -0.0484,-0.21718 0.0484,-0.21719 0.57593,-2.58746 -2.13528,1.59904 -0.71467,0.53499 -0.61249,-0.64968 c -1.44873,-1.53747 -3.95463,-3.17995 -6.64271,-3.17995 -3.9237,0 -7.26302,3.47901 -7.62676,4.49993 0.36374,1.02093 3.70306,4.49993 7.62676,4.49993 z m -2.64246,-5.24992 c 0.41405,0 0.74998,0.33562 0.74998,0.74999 0,0.41406 -0.33593,0.74999 -0.74998,0.74999 -0.41406,0 -0.74999,-0.33593 -0.74999,-0.74999 0,-0.41437 0.33593,-0.74999 0.74999,-0.74999 z"
       id="path3107" />
    <path
       id="path3109"
       d="m 209.78494,172.25784 c 3.1237,0 5.85209,1.88278 7.37051,3.49338 l 3.03245,-2.27059 c 0.11406,-0.0853 0.24312,-0.12312 0.36875,-0.12312 0.33905,0 0.65217,0.27437 0.57374,0.62686 l -0.8403,3.77338 0.83998,3.77307 c 0.0784,0.35249 -0.23499,0.62687 -0.57374,0.62687 -0.12562,0 -0.25468,-0.0378 -0.36874,-0.12313 l -3.03245,-2.27059 c -1.51811,1.61092 -4.2465,3.4937 -7.3702,3.4937 -4.77306,0 -8.64237,-4.39993 -8.64237,-5.49992 0,-1.09998 3.86931,-5.49991 8.64237,-5.49991 z m 0,9.99984 c 2.68808,0 5.19398,-1.64247 6.64271,-3.17932 l 0.61249,-0.64968 0.71467,0.53499 2.13528,1.59904 -0.57593,-2.58746 -0.0484,-0.21718 0.0484,-0.21719 0.57593,-2.58746 -2.13528,1.59904 -0.71467,0.53499 -0.61249,-0.64968 c -1.44873,-1.53747 -3.95463,-3.17995 -6.64271,-3.17995 -3.9237,0 -7.26302,3.47901 -7.62676,4.49993 0.36374,1.02093 3.70306,4.49993 7.62676,4.49993 z m -2.64246,-5.24992 c 0.41405,0 0.74998,0.33562 0.74998,0.74999 0,0.41406 -0.33593,0.74999 -0.74998,0.74999 -0.41406,0 -0.74999,-0.33593 -0.74999,-0.74999 0,-0.41437 0.33593,-0.74999 0.74999,-0.74999 z"
       style="fill:#666666;fill-opacity:1;stroke-width:0.26458332" />
    <path
       style="fill:#666666;fill-opacity:1;stroke-width:0.26458332"
       d="m 223.71936,238.27523 c 3.1237,0 5.85209,1.88278 7.37051,3.49338 l 3.03245,-2.27059 c 0.11406,-0.0853 0.24312,-0.12312 0.36875,-0.12312 0.33905,0 0.65217,0.27437 0.57374,0.62686 l -0.8403,3.77338 0.83998,3.77307 c 0.0784,0.35249 -0.23499,0.62687 -0.57374,0.62687 -0.12562,0 -0.25468,-0.0378 -0.36874,-0.12313 l -3.03245,-2.27059 c -1.51811,1.61092 -4.2465,3.4937 -7.3702,3.4937 -4.77306,0 -8.64237,-4.39993 -8.64237,-5.49992 0,-1.09998 3.86931,-5.49991 8.64237,-5.49991 z m 0,9.99984 c 2.68808,0 5.19398,-1.64247 6.64271,-3.17932 l 0.61249,-0.64968 0.71467,0.53499 2.13528,1.59904 -0.57593,-2.58746 -0.0484,-0.21718 0.0484,-0.21719 0.57593,-2.58746 -2.13528,1.59904 -0.71467,0.53499 -0.61249,-0.64968 c -1.44873,-1.53747 -3.95463,-3.17995 -6.64271,-3.17995 -3.9237,0 -7.26302,3.47901 -7.62676,4.49993 0.36374,1.02093 3.70306,4.49993 7.62676,4.49993 z m -2.64246,-5.24992 c 0.41405,0 0.74998,0.33562 0.74998,0.74999 0,0.41406 -0.33593,0.74999 -0.74998,0.74999 -0.41406,0 -0.74999,-0.33593 -0.74999,-0.74999 0,-0.41437 0.33593,-0.74999 0.74999,-0.74999 z"
       id="path3111" />
    <path
       id="path3113"
       d="m 209.78494,251.10417 c 3.1237,0 5.85209,1.88278 7.37051,3.49338 l 3.03245,-2.27059 c 0.11406,-0.0853 0.24312,-0.12312 0.36875,-0.12312 0.33905,0 0.65217,0.27437 0.57374,0.62686 l -0.8403,3.77338 0.83998,3.77307 c 0.0784,0.35249 -0.23499,0.62687 -0.57374,0.62687 -0.12562,0 -0.25468,-0.0378 -0.36874,-0.12313 l -3.03245,-2.27059 c -1.51811,1.61092 -4.2465,3.4937 -7.3702,3.4937 -4.77306,0 -8.64237,-4.39993 -8.64237,-5.49992 0,-1.09998 3.86931,-5.49991 8.64237,-5.49991 z m 0,9.99984 c 2.68808,0 5.19398,-1.64247 6.64271,-3.17932 l 0.61249,-0.64968 0.71467,0.53499 2.13528,1.59904 -0.57593,-2.58746 -0.0484,-0.21718 0.0484,-0.21719 0.57593,-2.58746 -2.13528,1.59904 -0.71467,0.53499 -0.61249,-0.64968 c -1.44873,-1.53747 -3.95463,-3.17995 -6.64271,-3.17995 -3.9237,0 -7.26302,3.47901 -7.62676,4.49993 0.36374,1.02093 3.70306,4.49993 7.62676,4.49993 z m -2.64246,-5.24992 c 0.41405,0 0.74998,0.33562 0.74998,0.74999 0,0.41406 -0.33593,0.74999 -0.74998,0.74999 -0.41406,0 -0.74999,-0.33593 -0.74999,-0.74999 0,-0.41437 0.33593,-0.74999 0.74999,-0.74999 z"
       style="fill:#666666;fill-opacity:1;stroke-width:0.26458332" />
    <path
       style="fill:#666666;fill-opacity:1;stroke-width:0.26458332"
       d="m 209.78494,225.17484 c 3.1237,0 5.85209,1.88278 7.37051,3.49338 l 3.03245,-2.27059 c 0.11406,-0.0853 0.24312,-0.12312 0.36875,-0.12312 0.33905,0 0.65217,0.27437 0.57374,0.62686 l -0.8403,3.77338 0.83998,3.77307 c 0.0784,0.35249 -0.23499,0.62687 -0.57374,0.62687 -0.12562,0 -0.25468,-0.0378 -0.36874,-0.12313 l -3.03245,-2.27059 c -1.51811,1.61092 -4.2465,3.4937 -7.3702,3.4937 -4.77306,0 -8.64237,-4.39993 -8.64237,-5.49992 0,-1.09998 3.86931,-5.49991 8.64237,-5.49991 z m 0,9.99984 c 2.68808,0 5.19398,-1.64247 6.64271,-3.17932 l 0.61249,-0.64968 0.71467,0.53499 2.13528,1.59904 -0.57593,-2.58746 -0.0484,-0.21718 0.0484,-0.21719 0.57593,-2.58746 -2.13528,1.59904 -0.71467,0.53499 -0.61249,-0.64968 c -1.44873,-1.53747 -3.95463,-3.17995 -6.64271,-3.17995 -3.9237,0 -7.26302,3.47901 -7.62676,4.49993 0.36374,1.02093 3.70306,4.49993 7.62676,4.49993 z m -2.64246,-5.24992 c 0.41405,0 0.74998,0.33562 0.74998,0.74999 0,0.41406 -0.33593,0.74999 -0.74998,0.74999 -0.41406,0 -0.74999,-0.33593 -0.74999,-0.74999 0,-0.41437 0.33593,-0.74999 0.74999,-0.74999 z"
       id="path3115" />
    <path
       id="path3117"
       d="m 194.28054,261.62432 c 3.1237,0 5.85209,1.88278 7.37051,3.49338 l 3.03245,-2.27059 c 0.11406,-0.0853 0.24312,-0.12312 0.36875,-0.12312 0.33905,0 0.65217,0.27437 0.57374,0.62686 l -0.8403,3.77338 0.83998,3.77307 c 0.0784,0.35249 -0.23499,0.62687 -0.57374,0.62687 -0.12562,0 -0.25468,-0.0378 -0.36874,-0.12313 l -3.03245,-2.27059 c -1.51811,1.61092 -4.2465,3.4937 -7.3702,3.4937 -4.77306,0 -8.64237,-4.39993 -8.64237,-5.49992 0,-1.09998 3.86931,-5.49991 8.64237,-5.49991 z m 0,9.99984 c 2.68808,0 5.19398,-1.64247 6.64271,-3.17932 l 0.61249,-0.64968 0.71467,0.53499 2.13528,1.59904 -0.57593,-2.58746 -0.0484,-0.21718 0.0484,-0.21719 0.57593,-2.58746 -2.13528,1.59904 -0.71467,0.53499 -0.61249,-0.64968 c -1.44873,-1.53747 -3.95463,-3.17995 -6.64271,-3.17995 -3.9237,0 -7.26302,3.47901 -7.62676,4.49993 0.36374,1.02093 3.70306,4.49993 7.62676,4.49993 z m -2.64246,-5.24992 c 0.41405,0 0.74998,0.33562 0.74998,0.74999 0,0.41406 -0.33593,0.74999 -0.74998,0.74999 -0.41406,0 -0.74999,-0.33593 -0.74999,-0.74999 0,-0.41437 0.33593,-0.74999 0.74999,-0.74999 z"
       style="fill:#666666;fill-opacity:1;stroke-width:0.26458332" />
    <path
       style="fill:#666666;fill-opacity:1;stroke-width:0.26458332"
       d="m 248.41435,238.40409 c 3.1237,0 5.85209,1.88278 7.37051,3.49338 l 3.03245,-2.27059 c 0.11406,-0.0853 0.24312,-0.12312 0.36875,-0.12312 0.33905,0 0.65217,0.27437 0.57374,0.62686 l -0.8403,3.77338 0.83998,3.77307 c 0.0784,0.35249 -0.23499,0.62687 -0.57374,0.62687 -0.12562,0 -0.25468,-0.0378 -0.36874,-0.12313 l -3.03245,-2.27059 c -1.51811,1.61092 -4.2465,3.4937 -7.3702,3.4937 -4.77306,0 -8.64237,-4.39993 -8.64237,-5.49992 0,-1.09998 3.86931,-5.49991 8.64237,-5.49991 z m 0,9.99984 c 2.68808,0 5.19398,-1.64247 6.64271,-3.17932 l 0.61249,-0.64968 0.71467,0.53499 2.13528,1.59904 -0.57593,-2.58746 -0.0484,-0.21718 0.0484,-0.21719 0.57593,-2.58746 -2.13528,1.59904 -0.71467,0.53499 -0.61249,-0.64968 c -1.44873,-1.53747 -3.95463,-3.17995 -6.64271,-3.17995 -3.9237,0 -7.26302,3.47901 -7.62676,4.49993 0.36374,1.02093 3.70306,4.49993 7.62676,4.49993 z m -2.64246,-5.24992 c 0.41405,0 0.74998,0.33562 0.74998,0.74999 0,0.41406 -0.33593,0.74999 -0.74998,0.74999 -0.41406,0 -0.74999,-0.33593 -0.74999,-0.74999 0,-0.41437 0.33593,-0.74999 0.74999,-0.74999 z"
       id="path3119" />
    <path
       style="fill:#666666;fill-opacity:1;stroke-width:0.26458332"
       d="m 232.90995,248.92424 c 3.1237,0 5.85209,1.88278 7.37051,3.49338 l 3.03245,-2.27059 c 0.11406,-0.0853 0.24312,-0.12312 0.36875,-0.12312 0.33905,0 0.65217,0.27437 0.57374,0.62686 l -0.8403,3.77338 0.83998,3.77307 c 0.0784,0.35249 -0.23499,0.62687 -0.57374,0.62687 -0.12562,0 -0.25468,-0.0378 -0.36874,-0.12313 l -3.03245,-2.27059 c -1.51811,1.61092 -4.2465,3.4937 -7.3702,3.4937 -4.77306,0 -8.64237,-4.39993 -8.64237,-5.49992 0,-1.09998 3.86931,-5.49991 8.64237,-5.49991 z m 0,9.99984 c 2.68808,0 5.19398,-1.64247 6.64271,-3.17932 l 0.61249,-0.64968 0.71467,0.53499 2.13528,1.59904 -0.57593,-2.58746 -0.0484,-0.21718 0.0484,-0.21719 0.57593,-2.58746 -2.13528,1.59904 -0.71467,0.53499 -0.61249,-0.64968 c -1.44873,-1.53747 -3.95463,-3.17995 -6.64271,-3.17995 -3.9237,0 -7.26302,3.47901 -7.62676,4.49993 0.36374,1.02093 3.70306,4.49993 7.62676,4.49993 z m -2.64246,-5.24992 c 0.41405,0 0.74998,0.33562 0.74998,0.74999 0,0.41406 -0.33593,0.74999 -0.74998,0.74999 -0.41406,0 -0.74999,-0.33593 -0.74999,-0.74999 0,-0.41437 0.33593,-0.74999 0.74999,-0.74999 z"
       id="path3121" />
    <path
       id="path3123"
       d="m 248.41435,195.36533 c 3.1237,0 5.85209,-1.88278 7.37051,-3.49338 l 3.03245,2.27059 c 0.11406,0.0853 0.24312,0.12312 0.36875,0.12312 0.33905,0 0.65217,-0.27437 0.57374,-0.62686 l -0.8403,-3.77338 0.83998,-3.77307 c 0.0784,-0.35249 -0.23499,-0.62687 -0.57374,-0.62687 -0.12562,0 -0.25468,0.0378 -0.36874,0.12313 l -3.03245,2.27059 c -1.51811,-1.61092 -4.2465,-3.4937 -7.3702,-3.4937 -4.77306,0 -8.64237,4.39993 -8.64237,5.49992 0,1.09998 3.86931,5.49991 8.64237,5.49991 z m 0,-9.99984 c 2.68808,0 5.19398,1.64247 6.64271,3.17932 l 0.61249,0.64968 0.71467,-0.53499 2.13528,-1.59904 -0.57593,2.58746 -0.0484,0.21718 0.0484,0.21719 0.57593,2.58746 -2.13528,-1.59904 -0.71467,-0.53499 -0.61249,0.64968 c -1.44873,1.53747 -3.95463,3.17995 -6.64271,3.17995 -3.9237,0 -7.26302,-3.47901 -7.62676,-4.49993 0.36374,-1.02093 3.70306,-4.49993 7.62676,-4.49993 z m -2.64246,5.24992 c 0.41405,0 0.74998,-0.33562 0.74998,-0.74999 0,-0.41406 -0.33593,-0.74999 -0.74998,-0.74999 -0.41406,0 -0.74999,0.33593 -0.74999,0.74999 0,0.41437 0.33593,0.74999 0.74999,0.74999 z"
       style="fill:#666666;fill-opacity:1;stroke-width:0.26458332" />
    <path
       id="path3125"
       d="m 232.90995,184.84518 c 3.1237,0 5.85209,-1.88278 7.37051,-3.49338 l 3.03245,2.27059 c 0.11406,0.0853 0.24312,0.12312 0.36875,0.12312 0.33905,0 0.65217,-0.27437 0.57374,-0.62686 l -0.8403,-3.77338 0.83998,-3.77307 c 0.0784,-0.35249 -0.23499,-0.62687 -0.57374,-0.62687 -0.12562,0 -0.25468,0.0378 -0.36874,0.12313 l -3.03245,2.27059 c -1.51811,-1.61092 -4.2465,-3.4937 -7.3702,-3.4937 -4.77306,0 -8.64237,4.39993 -8.64237,5.49992 0,1.09998 3.86931,5.49991 8.64237,5.49991 z m 0,-9.99984 c 2.68808,0 5.19398,1.64247 6.64271,3.17932 l 0.61249,0.64968 0.71467,-0.53499 2.13528,-1.59904 -0.57593,2.58746 -0.0484,0.21718 0.0484,0.21719 0.57593,2.58746 -2.13528,-1.59904 -0.71467,-0.53499 -0.61249,0.64968 c -1.44873,1.53747 -3.95463,3.17995 -6.64271,3.17995 -3.9237,0 -7.26302,-3.47901 -7.62676,-4.49993 0.36374,-1.02093 3.70306,-4.49993 7.62676,-4.49993 z m -2.64246,5.24992 c 0.41405,0 0.74998,-0.33562 0.74998,-0.74999 0,-0.41406 -0.33593,-0.74999 -0.74998,-0.74999 -0.41406,0 -0.74999,0.33593 -0.74999,0.74999 0,0.41437 0.33593,0.74999 0.74999,0.74999 z"
       style="fill:#666666;fill-opacity:1;stroke-width:0.26458332" />
    <path
       style="fill:#666666;fill-opacity:1;stroke-width:0.26458332"
       d="m 195.14418,186.94574 c 3.1237,0 5.85209,1.88278 7.37051,3.49338 l 3.03245,-2.27059 c 0.11406,-0.0853 0.24312,-0.12312 0.36875,-0.12312 0.33905,0 0.65217,0.27437 0.57374,0.62686 l -0.8403,3.77338 0.83998,3.77307 c 0.0784,0.35249 -0.23499,0.62687 -0.57374,0.62687 -0.12562,0 -0.25468,-0.0378 -0.36874,-0.12313 l -3.03245,-2.27059 c -1.51811,1.61092 -4.2465,3.4937 -7.3702,3.4937 -4.77306,0 -8.64237,-4.39993 -8.64237,-5.49992 0,-1.09998 3.86931,-5.49991 8.64237,-5.49991 z m 0,9.99984 c 2.68808,0 5.19398,-1.64247 6.64271,-3.17932 l 0.61249,-0.64968 0.71467,0.53499 2.13528,1.59904 -0.57593,-2.58746 -0.0484,-0.21718 0.0484,-0.21719 0.57593,-2.58746 -2.13528,1.59904 -0.71467,0.53499 -0.61249,-0.64968 c -1.44873,-1.53747 -3.95463,-3.17995 -6.64271,-3.17995 -3.9237,0 -7.26302,3.47901 -7.62676,4.49993 0.36374,1.02093 3.70306,4.49993 7.62676,4.49993 z m -2.64246,-5.24992 c 0.41405,0 0.74998,0.33562 0.74998,0.74999 0,0.41406 -0.33593,0.74999 -0.74998,0.74999 -0.41406,0 -0.74999,-0.33593 -0.74999,-0.74999 0,-0.41437 0.33593,-0.74999 0.74999,-0.74999 z"
       id="path3127" />
    <path
       id="path3129"
       d="m 177.50557,199.77468 c 3.1237,0 5.85209,1.88278 7.37051,3.49338 l 3.03245,-2.27059 c 0.11406,-0.0853 0.24312,-0.12312 0.36875,-0.12312 0.33905,0 0.65217,0.27437 0.57374,0.62686 l -0.8403,3.77338 0.83998,3.77307 c 0.0784,0.35249 -0.23499,0.62687 -0.57374,0.62687 -0.12562,0 -0.25468,-0.0378 -0.36874,-0.12313 l -3.03245,-2.27059 c -1.51811,1.61092 -4.2465,3.4937 -7.3702,3.4937 -4.77306,0 -8.64237,-4.39993 -8.64237,-5.49992 0,-1.09998 3.86931,-5.49991 8.64237,-5.49991 z m 0,9.99984 c 2.68808,0 5.19398,-1.64247 6.64271,-3.17932 l 0.61249,-0.64968 0.71467,0.53499 2.13528,1.59904 -0.57593,-2.58746 -0.0484,-0.21718 0.0484,-0.21719 0.57593,-2.58746 -2.13528,1.59904 -0.71467,0.53499 -0.61249,-0.64968 c -1.44873,-1.53747 -3.95463,-3.17995 -6.64271,-3.17995 -3.9237,0 -7.26302,3.47901 -7.62676,4.49993 0.36374,1.02093 3.70306,4.49993 7.62676,4.49993 z m -2.64246,-5.24992 c 0.41405,0 0.74998,0.33562 0.74998,0.74999 0,0.41406 -0.33593,0.74999 -0.74998,0.74999 -0.41406,0 -0.74999,-0.33593 -0.74999,-0.74999 0,-0.41437 0.33593,-0.74999 0.74999,-0.74999 z"
       style="fill:#666666;fill-opacity:1;stroke-width:0.26458332" />
    <path
       style="fill:#666666;fill-opacity:1;stroke-width:0.26458332"
       d="m 177.50557,173.84535 c 3.1237,0 5.85209,1.88278 7.37051,3.49338 l 3.03245,-2.27059 c 0.11406,-0.0853 0.24312,-0.12312 0.36875,-0.12312 0.33905,0 0.65217,0.27437 0.57374,0.62686 l -0.8403,3.77338 0.83998,3.77307 c 0.0784,0.35249 -0.23499,0.62687 -0.57374,0.62687 -0.12562,0 -0.25468,-0.0378 -0.36874,-0.12313 l -3.03245,-2.27059 c -1.51811,1.61092 -4.2465,3.4937 -7.3702,3.4937 -4.77306,0 -8.64237,-4.39993 -8.64237,-5.49992 0,-1.09998 3.86931,-5.49991 8.64237,-5.49991 z m 0,9.99984 c 2.68808,0 5.19398,-1.64247 6.64271,-3.17932 l 0.61249,-0.64968 0.71467,0.53499 2.13528,1.59904 -0.57593,-2.58746 -0.0484,-0.21718 0.0484,-0.21719 0.57593,-2.58746 -2.13528,1.59904 -0.71467,0.53499 -0.61249,-0.64968 c -1.44873,-1.53747 -3.95463,-3.17995 -6.64271,-3.17995 -3.9237,0 -7.26302,3.47901 -7.62676,4.49993 0.36374,1.02093 3.70306,4.49993 7.62676,4.49993 z m -2.64246,-5.24992 c 0.41405,0 0.74998,0.33562 0.74998,0.74999 0,0.41406 -0.33593,0.74999 -0.74998,0.74999 -0.41406,0 -0.74999,-0.33593 -0.74999,-0.74999 0,-0.41437 0.33593,-0.74999 0.74999,-0.74999 z"
       id="path3131" />
    <path
       id="path3133"
       d="m 195.14418,238.27523 c 3.1237,0 5.85209,1.88278 7.37051,3.49338 l 3.03245,-2.27059 c 0.11406,-0.0853 0.24312,-0.12312 0.36875,-0.12312 0.33905,0 0.65217,0.27437 0.57374,0.62686 l -0.8403,3.77338 0.83998,3.77307 c 0.0784,0.35249 -0.23499,0.62687 -0.57374,0.62687 -0.12562,0 -0.25468,-0.0378 -0.36874,-0.12313 l -3.03245,-2.27059 c -1.51811,1.61092 -4.2465,3.4937 -7.3702,3.4937 -4.77306,0 -8.64237,-4.39993 -8.64237,-5.49992 0,-1.09998 3.86931,-5.49991 8.64237,-5.49991 z m 0,9.99984 c 2.68808,0 5.19398,-1.64247 6.64271,-3.17932 l 0.61249,-0.64968 0.71467,0.53499 2.13528,1.59904 -0.57593,-2.58746 -0.0484,-0.21718 0.0484,-0.21719 0.57593,-2.58746 -2.13528,1.59904 -0.71467,0.53499 -0.61249,-0.64968 c -1.44873,-1.53747 -3.95463,-3.17995 -6.64271,-3.17995 -3.9237,0 -7.26302,3.47901 -7.62676,4.49993 0.36374,1.02093 3.70306,4.49993 7.62676,4.49993 z m -2.64246,-5.24992 c 0.41405,0 0.74998,0.33562 0.74998,0.74999 0,0.41406 -0.33593,0.74999 -0.74998,0.74999 -0.41406,0 -0.74999,-0.33593 -0.74999,-0.74999 0,-0.41437 0.33593,-0.74999 0.74999,-0.74999 z"
       style="fill:#666666;fill-opacity:1;stroke-width:0.26458332" />
    <path
       style="fill:#666666;fill-opacity:1;stroke-width:0.26458332"
       d="m 177.50557,251.10417 c 3.1237,0 5.85209,1.88278 7.37051,3.49338 l 3.03245,-2.27059 c 0.11406,-0.0853 0.24312,-0.12312 0.36875,-0.12312 0.33905,0 0.65217,0.27437 0.57374,0.62686 l -0.8403,3.77338 0.83998,3.77307 c 0.0784,0.35249 -0.23499,0.62687 -0.57374,0.62687 -0.12562,0 -0.25468,-0.0378 -0.36874,-0.12313 l -3.03245,-2.27059 c -1.51811,1.61092 -4.2465,3.4937 -7.3702,3.4937 -4.77306,0 -8.64237,-4.39993 -8.64237,-5.49992 0,-1.09998 3.86931,-5.49991 8.64237,-5.49991 z m 0,9.99984 c 2.68808,0 5.19398,-1.64247 6.64271,-3.17932 l 0.61249,-0.64968 0.71467,0.53499 2.13528,1.59904 -0.57593,-2.58746 -0.0484,-0.21718 0.0484,-0.21719 0.57593,-2.58746 -2.13528,1.59904 -0.71467,0.53499 -0.61249,-0.64968 c -1.44873,-1.53747 -3.95463,-3.17995 -6.64271,-3.17995 -3.9237,0 -7.26302,3.47901 -7.62676,4.49993 0.36374,1.02093 3.70306,4.49993 7.62676,4.49993 z m -2.64246,-5.24992 c 0.41405,0 0.74998,0.33562 0.74998,0.74999 0,0.41406 -0.33593,0.74999 -0.74998,0.74999 -0.41406,0 -0.74999,-0.33593 -0.74999,-0.74999 0,-0.41437 0.33593,-0.74999 0.74999,-0.74999 z"
       id="path3135" />
    <path
       id="path3137"
       d="m 177.50557,225.17484 c 3.1237,0 5.85209,1.88278 7.37051,3.49338 l 3.03245,-2.27059 c 0.11406,-0.0853 0.24312,-0.12312 0.36875,-0.12312 0.33905,0 0.65217,0.27437 0.57374,0.62686 l -0.8403,3.77338 0.83998,3.77307 c 0.0784,0.35249 -0.23499,0.62687 -0.57374,0.62687 -0.12562,0 -0.25468,-0.0378 -0.36874,-0.12313 l -3.03245,-2.27059 c -1.51811,1.61092 -4.2465,3.4937 -7.3702,3.4937 -4.77306,0 -8.64237,-4.39993 -8.64237,-5.49992 0,-1.09998 3.86931,-5.49991 8.64237,-5.49991 z m 0,9.99984 c 2.68808,0 5.19398,-1.64247 6.64271,-3.17932 l 0.61249,-0.64968 0.71467,0.53499 2.13528,1.59904 -0.57593,-2.58746 -0.0484,-0.21718 0.0484,-0.21719 0.57593,-2.58746 -2.13528,1.59904 -0.71467,0.53499 -0.61249,-0.64968 c -1.44873,-1.53747 -3.95463,-3.17995 -6.64271,-3.17995 -3.9237,0 -7.26302,3.47901 -7.62676,4.49993 0.36374,1.02093 3.70306,4.49993 7.62676,4.49993 z m -2.64246,-5.24992 c 0.41405,0 0.74998,0.33562 0.74998,0.74999 0,0.41406 -0.33593,0.74999 -0.74998,0.74999 -0.41406,0 -0.74999,-0.33593 -0.74999,-0.74999 0,-0.41437 0.33593,-0.74999 0.74999,-0.74999 z"
       style="fill:#666666;fill-opacity:1;stroke-width:0.26458332" />
    <path
       style="fill:#666666;fill-opacity:1;stroke-width:0.26458332"
       d="m 195.14418,211.95269 c 3.1237,0 5.85209,1.88278 7.37051,3.49338 l 3.03245,-2.27059 c 0.11406,-0.0853 0.24312,-0.12312 0.36875,-0.12312 0.33905,0 0.65217,0.27437 0.57374,0.62686 l -0.8403,3.77338 0.83998,3.77307 c 0.0784,0.35249 -0.23499,0.62687 -0.57374,0.62687 -0.12562,0 -0.25468,-0.0378 -0.36874,-0.12313 l -3.03245,-2.27059 c -1.51811,1.61092 -4.2465,3.4937 -7.3702,3.4937 -4.77306,0 -8.64237,-4.39993 -8.64237,-5.49992 0,-1.09998 3.86931,-5.49991 8.64237,-5.49991 z m 0,9.99984 c 2.68808,0 5.19398,-1.64247 6.64271,-3.17932 l 0.61249,-0.64968 0.71467,0.53499 2.13528,1.59904 -0.57593,-2.58746 -0.0484,-0.21718 0.0484,-0.21719 0.57593,-2.58746 -2.13528,1.59904 -0.71467,0.53499 -0.61249,-0.64968 c -1.44873,-1.53747 -3.95463,-3.17995 -6.64271,-3.17995 -3.9237,0 -7.26302,3.47901 -7.62676,4.49993 0.36374,1.02093 3.70306,4.49993 7.62676,4.49993 z m -2.64246,-5.24992 c 0.41405,0 0.74998,0.33562 0.74998,0.74999 0,0.41406 -0.33593,0.74999 -0.74998,0.74999 -0.41406,0 -0.74999,-0.33593 -0.74999,-0.74999 0,-0.41437 0.33593,-0.74999 0.74999,-0.74999 z"
       id="path3139" />
    <path
       style="fill:#666666;fill-opacity:1;stroke-width:0.26458332"
       d="m 165.33466,186.01626 c 3.1237,0 5.85209,1.88278 7.37051,3.49338 l 3.03245,-2.27059 c 0.11406,-0.0853 0.24312,-0.12312 0.36875,-0.12312 0.33905,0 0.65217,0.27437 0.57374,0.62686 l -0.8403,3.77338 0.83998,3.77307 c 0.0784,0.35249 -0.23499,0.62687 -0.57374,0.62687 -0.12562,0 -0.25468,-0.0378 -0.36874,-0.12313 l -3.03245,-2.27059 c -1.51811,1.61092 -4.2465,3.4937 -7.3702,3.4937 -4.77306,0 -8.64237,-4.39993 -8.64237,-5.49992 0,-1.09998 3.86931,-5.49991 8.64237,-5.49991 z m 0,9.99984 c 2.68808,0 5.19398,-1.64247 6.64271,-3.17932 l 0.61249,-0.64968 0.71467,0.53499 2.13528,1.59904 -0.57593,-2.58746 -0.0484,-0.21718 0.0484,-0.21719 0.57593,-2.58746 -2.13528,1.59904 -0.71467,0.53499 -0.61249,-0.64968 c -1.44873,-1.53747 -3.95463,-3.17995 -6.64271,-3.17995 -3.9237,0 -7.26302,3.47901 -7.62676,4.49993 0.36374,1.02093 3.70306,4.49993 7.62676,4.49993 z m -2.64246,-5.24992 c 0.41405,0 0.74998,0.33562 0.74998,0.74999 0,0.41406 -0.33593,0.74999 -0.74998,0.74999 -0.41406,0 -0.74999,-0.33593 -0.74999,-0.74999 0,-0.41437 0.33593,-0.74999 0.74999,-0.74999 z"
       id="path3141" />
    <path
       id="path3143"
       d="m 152.01951,171.84679 c 3.1237,0 5.85209,1.88278 7.37051,3.49338 l 3.03245,-2.27059 c 0.11406,-0.0853 0.24312,-0.12312 0.36875,-0.12312 0.33905,0 0.65217,0.27437 0.57374,0.62686 l -0.8403,3.77338 0.83998,3.77307 c 0.0784,0.35249 -0.23499,0.62687 -0.57374,0.62687 -0.12562,0 -0.25468,-0.0378 -0.36874,-0.12313 l -3.03245,-2.27059 c -1.51811,1.61092 -4.2465,3.4937 -7.3702,3.4937 -4.77306,0 -8.64237,-4.39993 -8.64237,-5.49992 0,-1.09998 3.86931,-5.49991 8.64237,-5.49991 z m 0,9.99984 c 2.68808,0 5.19398,-1.64247 6.64271,-3.17932 l 0.61249,-0.64968 0.71467,0.53499 2.13528,1.59904 -0.57593,-2.58746 -0.0484,-0.21718 0.0484,-0.21719 0.57593,-2.58746 -2.13528,1.59904 -0.71467,0.53499 -0.61249,-0.64968 c -1.44873,-1.53747 -3.95463,-3.17995 -6.64271,-3.17995 -3.9237,0 -7.26302,3.47901 -7.62676,4.49993 0.36374,1.02093 3.70306,4.49993 7.62676,4.49993 z m -2.64246,-5.24992 c 0.41405,0 0.74998,0.33562 0.74998,0.74999 0,0.41406 -0.33593,0.74999 -0.74998,0.74999 -0.41406,0 -0.74999,-0.33593 -0.74999,-0.74999 0,-0.41437 0.33593,-0.74999 0.74999,-0.74999 z"
       style="fill:#666666;fill-opacity:1;stroke-width:0.26458332" />
    <path
       id="path3145"
       d="m 165.33466,237.34575 c 3.1237,0 5.85209,1.88278 7.37051,3.49338 l 3.03245,-2.27059 c 0.11406,-0.0853 0.24312,-0.12312 0.36875,-0.12312 0.33905,0 0.65217,0.27437 0.57374,0.62686 l -0.8403,3.77338 0.83998,3.77307 c 0.0784,0.35249 -0.23499,0.62687 -0.57374,0.62687 -0.12562,0 -0.25468,-0.0378 -0.36874,-0.12313 l -3.03245,-2.27059 c -1.51811,1.61092 -4.2465,3.4937 -7.3702,3.4937 -4.77306,0 -8.64237,-4.39993 -8.64237,-5.49992 0,-1.09998 3.86931,-5.49991 8.64237,-5.49991 z m 0,9.99984 c 2.68808,0 5.19398,-1.64247 6.64271,-3.17932 l 0.61249,-0.64968 0.71467,0.53499 2.13528,1.59904 -0.57593,-2.58746 -0.0484,-0.21718 0.0484,-0.21719 0.57593,-2.58746 -2.13528,1.59904 -0.71467,0.53499 -0.61249,-0.64968 c -1.44873,-1.53747 -3.95463,-3.17995 -6.64271,-3.17995 -3.9237,0 -7.26302,3.47901 -7.62676,4.49993 0.36374,1.02093 3.70306,4.49993 7.62676,4.49993 z m -2.64246,-5.24992 c 0.41405,0 0.74998,0.33562 0.74998,0.74999 0,0.41406 -0.33593,0.74999 -0.74998,0.74999 -0.41406,0 -0.74999,-0.33593 -0.74999,-0.74999 0,-0.41437 0.33593,-0.74999 0.74999,-0.74999 z"
       style="fill:#666666;fill-opacity:1;stroke-width:0.26458332" />
    <path
       style="fill:#666666;fill-opacity:1;stroke-width:0.26458332"
       d="m 165.33466,211.41642 c 3.1237,0 5.85209,1.88278 7.37051,3.49338 l 3.03245,-2.27059 c 0.11406,-0.0853 0.24312,-0.12312 0.36875,-0.12312 0.33905,0 0.65217,0.27437 0.57374,0.62686 l -0.8403,3.77338 0.83998,3.77307 c 0.0784,0.35249 -0.23499,0.62687 -0.57374,0.62687 -0.12562,0 -0.25468,-0.0378 -0.36874,-0.12313 l -3.03245,-2.27059 c -1.51811,1.61092 -4.2465,3.4937 -7.3702,3.4937 -4.77306,0 -8.64237,-4.39993 -8.64237,-5.49992 0,-1.09998 3.86931,-5.49991 8.64237,-5.49991 z m 0,9.99984 c 2.68808,0 5.19398,-1.64247 6.64271,-3.17932 l 0.61249,-0.64968 0.71467,0.53499 2.13528,1.59904 -0.57593,-2.58746 -0.0484,-0.21718 0.0484,-0.21719 0.57593,-2.58746 -2.13528,1.59904 -0.71467,0.53499 -0.61249,-0.64968 c -1.44873,-1.53747 -3.95463,-3.17995 -6.64271,-3.17995 -3.9237,0 -7.26302,3.47901 -7.62676,4.49993 0.36374,1.02093 3.70306,4.49993 7.62676,4.49993 z m -2.64246,-5.24992 c 0.41405,0 0.74998,0.33562 0.74998,0.74999 0,0.41406 -0.33593,0.74999 -0.74998,0.74999 -0.41406,0 -0.74999,-0.33593 -0.74999,-0.74999 0,-0.41437 0.33593,-0.74999 0.74999,-0.74999 z"
       id="path3147" />
    <path
       style="fill:#666666;fill-opacity:1;stroke-width:0.26458332"
       d="m 152.01951,251.48774 c 3.1237,0 5.85209,1.88278 7.37051,3.49338 l 3.03245,-2.27059 c 0.11406,-0.0853 0.24312,-0.12312 0.36875,-0.12312 0.33905,0 0.65217,0.27437 0.57374,0.62686 l -0.8403,3.77338 0.83998,3.77307 c 0.0784,0.35249 -0.23499,0.62687 -0.57374,0.62687 -0.12562,0 -0.25468,-0.0378 -0.36874,-0.12313 l -3.03245,-2.27059 c -1.51811,1.61092 -4.2465,3.4937 -7.3702,3.4937 -4.77306,0 -8.64237,-4.39993 -8.64237,-5.49992 0,-1.09998 3.86931,-5.49991 8.64237,-5.49991 z m 0,9.99984 c 2.68808,0 5.19398,-1.64247 6.64271,-3.17932 l 0.61249,-0.64968 0.71467,0.53499 2.13528,1.59904 -0.57593,-2.58746 -0.0484,-0.21718 0.0484,-0.21719 0.57593,-2.58746 -2.13528,1.59904 -0.71467,0.53499 -0.61249,-0.64968 c -1.44873,-1.53747 -3.95463,-3.17995 -6.64271,-3.17995 -3.9237,0 -7.26302,3.47901 -7.62676,4.49993 0.36374,1.02093 3.70306,4.49993 7.62676,4.49993 z m -2.64246,-5.24992 c 0.41405,0 0.74998,0.33562 0.74998,0.74999 0,0.41406 -0.33593,0.74999 -0.74998,0.74999 -0.41406,0 -0.74999,-0.33593 -0.74999,-0.74999 0,-0.41437 0.33593,-0.74999 0.74999,-0.74999 z"
       id="path3149" />
    <path
       id="path3151"
       d="m 139.9345,186.01626 c 3.1237,0 5.85209,1.88278 7.37051,3.49338 l 3.03245,-2.27059 c 0.11406,-0.0853 0.24312,-0.12312 0.36875,-0.12312 0.33905,0 0.65217,0.27437 0.57374,0.62686 l -0.8403,3.77338 0.83998,3.77307 c 0.0784,0.35249 -0.23499,0.62687 -0.57374,0.62687 -0.12562,0 -0.25468,-0.0378 -0.36874,-0.12313 l -3.03245,-2.27059 c -1.51811,1.61092 -4.2465,3.4937 -7.3702,3.4937 -4.77306,0 -8.64237,-4.39993 -8.64237,-5.49992 0,-1.09998 3.86931,-5.49991 8.64237,-5.49991 z m 0,9.99984 c 2.68808,0 5.19398,-1.64247 6.64271,-3.17932 l 0.61249,-0.64968 0.71467,0.53499 2.13528,1.59904 -0.57593,-2.58746 -0.0484,-0.21718 0.0484,-0.21719 0.57593,-2.58746 -2.13528,1.59904 -0.71467,0.53499 -0.61249,-0.64968 c -1.44873,-1.53747 -3.95463,-3.17995 -6.64271,-3.17995 -3.9237,0 -7.26302,3.47901 -7.62676,4.49993 0.36374,1.02093 3.70306,4.49993 7.62676,4.49993 z m -2.64246,-5.24992 c 0.41405,0 0.74998,0.33562 0.74998,0.74999 0,0.41406 -0.33593,0.74999 -0.74998,0.74999 -0.41406,0 -0.74999,-0.33593 -0.74999,-0.74999 0,-0.41437 0.33593,-0.74999 0.74999,-0.74999 z"
       style="fill:#666666;fill-opacity:1;stroke-width:0.26458332" />
    <path
       style="fill:#666666;fill-opacity:1;stroke-width:0.26458332"
       d="m 139.9345,237.34575 c 3.1237,0 5.85209,1.88278 7.37051,3.49338 l 3.03245,-2.27059 c 0.11406,-0.0853 0.24312,-0.12312 0.36875,-0.12312 0.33905,0 0.65217,0.27437 0.57374,0.62686 l -0.8403,3.77338 0.83998,3.77307 c 0.0784,0.35249 -0.23499,0.62687 -0.57374,0.62687 -0.12562,0 -0.25468,-0.0378 -0.36874,-0.12313 l -3.03245,-2.27059 c -1.51811,1.61092 -4.2465,3.4937 -7.3702,3.4937 -4.77306,0 -8.64237,-4.39993 -8.64237,-5.49992 0,-1.09998 3.86931,-5.49991 8.64237,-5.49991 z m 0,9.99984 c 2.68808,0 5.19398,-1.64247 6.64271,-3.17932 l 0.61249,-0.64968 0.71467,0.53499 2.13528,1.59904 -0.57593,-2.58746 -0.0484,-0.21718 0.0484,-0.21719 0.57593,-2.58746 -2.13528,1.59904 -0.71467,0.53499 -0.61249,-0.64968 c -1.44873,-1.53747 -3.95463,-3.17995 -6.64271,-3.17995 -3.9237,0 -7.26302,3.47901 -7.62676,4.49993 0.36374,1.02093 3.70306,4.49993 7.62676,4.49993 z m -2.64246,-5.24992 c 0.41405,0 0.74998,0.33562 0.74998,0.74999 0,0.41406 -0.33593,0.74999 -0.74998,0.74999 -0.41406,0 -0.74999,-0.33593 -0.74999,-0.74999 0,-0.41437 0.33593,-0.74999 0.74999,-0.74999 z"
       id="path3153" />
    <path
       id="path3155"
       d="m 139.9345,211.41642 c 3.1237,0 5.85209,1.88278 7.37051,3.49338 l 3.03245,-2.27059 c 0.11406,-0.0853 0.24312,-0.12312 0.36875,-0.12312 0.33905,0 0.65217,0.27437 0.57374,0.62686 l -0.8403,3.77338 0.83998,3.77307 c 0.0784,0.35249 -0.23499,0.62687 -0.57374,0.62687 -0.12562,0 -0.25468,-0.0378 -0.36874,-0.12313 l -3.03245,-2.27059 c -1.51811,1.61092 -4.2465,3.4937 -7.3702,3.4937 -4.77306,0 -8.64237,-4.39993 -8.64237,-5.49992 0,-1.09998 3.86931,-5.49991 8.64237,-5.49991 z m 0,9.99984 c 2.68808,0 5.19398,-1.64247 6.64271,-3.17932 l 0.61249,-0.64968 0.71467,0.53499 2.13528,1.59904 -0.57593,-2.58746 -0.0484,-0.21718 0.0484,-0.21719 0.57593,-2.58746 -2.13528,1.59904 -0.71467,0.53499 -0.61249,-0.64968 c -1.44873,-1.53747 -3.95463,-3.17995 -6.64271,-3.17995 -3.9237,0 -7.26302,3.47901 -7.62676,4.49993 0.36374,1.02093 3.70306,4.49993 7.62676,4.49993 z m -2.64246,-5.24992 c 0.41405,0 0.74998,0.33562 0.74998,0.74999 0,0.41406 -0.33593,0.74999 -0.74998,0.74999 -0.41406,0 -0.74999,-0.33593 -0.74999,-0.74999 0,-0.41437 0.33593,-0.74999 0.74999,-0.74999 z"
       style="fill:#666666;fill-opacity:1;stroke-width:0.26458332" />
    <path
       style="fill:#666666;fill-opacity:1;stroke-width:0.26458332"
       d="m 149.45956,199.77468 c 3.1237,0 5.85209,1.88278 7.37051,3.49338 l 3.03245,-2.27059 c 0.11406,-0.0853 0.24312,-0.12312 0.36875,-0.12312 0.33905,0 0.65217,0.27437 0.57374,0.62686 l -0.8403,3.77338 0.83998,3.77307 c 0.0784,0.35249 -0.23499,0.62687 -0.57374,0.62687 -0.12562,0 -0.25468,-0.0378 -0.36874,-0.12313 l -3.03245,-2.27059 c -1.51811,1.61092 -4.2465,3.4937 -7.3702,3.4937 -4.77306,0 -8.64237,-4.39993 -8.64237,-5.49992 0,-1.09998 3.86931,-5.49991 8.64237,-5.49991 z m 0,9.99984 c 2.68808,0 5.19398,-1.64247 6.64271,-3.17932 l 0.61249,-0.64968 0.71467,0.53499 2.13528,1.59904 -0.57593,-2.58746 -0.0484,-0.21718 0.0484,-0.21719 0.57593,-2.58746 -2.13528,1.59904 -0.71467,0.53499 -0.61249,-0.64968 c -1.44873,-1.53747 -3.95463,-3.17995 -6.64271,-3.17995 -3.9237,0 -7.26302,3.47901 -7.62676,4.49993 0.36374,1.02093 3.70306,4.49993 7.62676,4.49993 z m -2.64246,-5.24992 c 0.41405,0 0.74998,0.33562 0.74998,0.74999 0,0.41406 -0.33593,0.74999 -0.74998,0.74999 -0.41406,0 -0.74999,-0.33593 -0.74999,-0.74999 0,-0.41437 0.33593,-0.74999 0.74999,-0.74999 z"
       id="path3157" />
    <path
       style="fill:#666666;fill-opacity:1;stroke-width:0.26458332"
       d="m 149.45956,225.17484 c 3.1237,0 5.85209,1.88278 7.37051,3.49338 l 3.03245,-2.27059 c 0.11406,-0.0853 0.24312,-0.12312 0.36875,-0.12312 0.33905,0 0.65217,0.27437 0.57374,0.62686 l -0.8403,3.77338 0.83998,3.77307 c 0.0784,0.35249 -0.23499,0.62687 -0.57374,0.62687 -0.12562,0 -0.25468,-0.0378 -0.36874,-0.12313 l -3.03245,-2.27059 c -1.51811,1.61092 -4.2465,3.4937 -7.3702,3.4937 -4.77306,0 -8.64237,-4.39993 -8.64237,-5.49992 0,-1.09998 3.86931,-5.49991 8.64237,-5.49991 z m 0,9.99984 c 2.68808,0 5.19398,-1.64247 6.64271,-3.17932 l 0.61249,-0.64968 0.71467,0.53499 2.13528,1.59904 -0.57593,-2.58746 -0.0484,-0.21718 0.0484,-0.21719 0.57593,-2.58746 -2.13528,1.59904 -0.71467,0.53499 -0.61249,-0.64968 c -1.44873,-1.53747 -3.95463,-3.17995 -6.64271,-3.17995 -3.9237,0 -7.26302,3.47901 -7.62676,4.49993 0.36374,1.02093 3.70306,4.49993 7.62676,4.49993 z m -2.64246,-5.24992 c 0.41405,0 0.74998,0.33562 0.74998,0.74999 0,0.41406 -0.33593,0.74999 -0.74998,0.74999 -0.41406,0 -0.74999,-0.33593 -0.74999,-0.74999 0,-0.41437 0.33593,-0.74999 0.74999,-0.74999 z"
       id="path3159" />
    <path
       id="path3161"
       d="m 124.0594,199.77468 c 3.1237,0 5.85209,1.88278 7.37051,3.49338 l 3.03245,-2.27059 c 0.11406,-0.0853 0.24312,-0.12312 0.36875,-0.12312 0.33905,0 0.65217,0.27437 0.57374,0.62686 l -0.8403,3.77338 0.83998,3.77307 c 0.0784,0.35249 -0.23499,0.62687 -0.57374,0.62687 -0.12562,0 -0.25468,-0.0378 -0.36874,-0.12313 l -3.03245,-2.27059 c -1.51811,1.61092 -4.2465,3.4937 -7.3702,3.4937 -4.77306,0 -8.64237,-4.39993 -8.64237,-5.49992 0,-1.09998 3.86931,-5.49991 8.64237,-5.49991 z m 0,9.99984 c 2.68808,0 5.19398,-1.64247 6.64271,-3.17932 l 0.61249,-0.64968 0.71467,0.53499 2.13528,1.59904 -0.57593,-2.58746 -0.0484,-0.21718 0.0484,-0.21719 0.57593,-2.58746 -2.13528,1.59904 -0.71467,0.53499 -0.61249,-0.64968 c -1.44873,-1.53747 -3.95463,-3.17995 -6.64271,-3.17995 -3.9237,0 -7.26302,3.47901 -7.62676,4.49993 0.36374,1.02093 3.70306,4.49993 7.62676,4.49993 z m -2.64246,-5.24992 c 0.41405,0 0.74998,0.33562 0.74998,0.74999 0,0.41406 -0.33593,0.74999 -0.74998,0.74999 -0.41406,0 -0.74999,-0.33593 -0.74999,-0.74999 0,-0.41437 0.33593,-0.74999 0.74999,-0.74999 z"
       style="fill:#666666;fill-opacity:1;stroke-width:0.26458332" />
    <path
       id="path3163"
       d="m 124.0594,225.17484 c 3.1237,0 5.85209,1.88278 7.37051,3.49338 l 3.03245,-2.27059 c 0.11406,-0.0853 0.24312,-0.12312 0.36875,-0.12312 0.33905,0 0.65217,0.27437 0.57374,0.62686 l -0.8403,3.77338 0.83998,3.77307 c 0.0784,0.35249 -0.23499,0.62687 -0.57374,0.62687 -0.12562,0 -0.25468,-0.0378 -0.36874,-0.12313 l -3.03245,-2.27059 c -1.51811,1.61092 -4.2465,3.4937 -7.3702,3.4937 -4.77306,0 -8.64237,-4.39993 -8.64237,-5.49992 0,-1.09998 3.86931,-5.49991 8.64237,-5.49991 z m 0,9.99984 c 2.68808,0 5.19398,-1.64247 6.64271,-3.17932 l 0.61249,-0.64968 0.71467,0.53499 2.13528,1.59904 -0.57593,-2.58746 -0.0484,-0.21718 0.0484,-0.21719 0.57593,-2.58746 -2.13528,1.59904 -0.71467,0.53499 -0.61249,-0.64968 c -1.44873,-1.53747 -3.95463,-3.17995 -6.64271,-3.17995 -3.9237,0 -7.26302,3.47901 -7.62676,4.49993 0.36374,1.02093 3.70306,4.49993 7.62676,4.49993 z m -2.64246,-5.24992 c 0.41405,0 0.74998,0.33562 0.74998,0.74999 0,0.41406 -0.33593,0.74999 -0.74998,0.74999 -0.41406,0 -0.74999,-0.33593 -0.74999,-0.74999 0,-0.41437 0.33593,-0.74999 0.74999,-0.74999 z"
       style="fill:#666666;fill-opacity:1;stroke-width:0.26458332" />
    <path
       id="path3165"
       d="m 116.12185,211.41642 c 3.1237,0 5.85209,1.88278 7.37051,3.49338 l 3.03245,-2.27059 c 0.11406,-0.0853 0.24312,-0.12312 0.36875,-0.12312 0.33905,0 0.65217,0.27437 0.57374,0.62686 l -0.8403,3.77338 0.83998,3.77307 c 0.0784,0.35249 -0.23499,0.62687 -0.57374,0.62687 -0.12562,0 -0.25468,-0.0378 -0.36874,-0.12313 l -3.03245,-2.27059 c -1.51811,1.61092 -4.2465,3.4937 -7.3702,3.4937 -4.77306,0 -8.64237,-4.39993 -8.64237,-5.49992 0,-1.09998 3.86931,-5.49991 8.64237,-5.49991 z m 0,9.99984 c 2.68808,0 5.19398,-1.64247 6.64271,-3.17932 l 0.61249,-0.64968 0.71467,0.53499 2.13528,1.59904 -0.57593,-2.58746 -0.0484,-0.21718 0.0484,-0.21719 0.57593,-2.58746 -2.13528,1.59904 -0.71467,0.53499 -0.61249,-0.64968 c -1.44873,-1.53747 -3.95463,-3.17995 -6.64271,-3.17995 -3.9237,0 -7.26302,3.47901 -7.62676,4.49993 0.36374,1.02093 3.70306,4.49993 7.62676,4.49993 z m -2.64246,-5.24992 c 0.41405,0 0.74998,0.33562 0.74998,0.74999 0,0.41406 -0.33593,0.74999 -0.74998,0.74999 -0.41406,0 -0.74999,-0.33593 -0.74999,-0.74999 0,-0.41437 0.33593,-0.74999 0.74999,-0.74999 z"
       style="fill:#666666;fill-opacity:1;stroke-width:0.26458332" />
    <path
       style="fill:#666666;fill-opacity:1;stroke-width:0.26458332"
       d="m 93.896746,181.25373 c 3.123682,0 5.852057,1.88278 7.370474,3.49338 l 3.03245,-2.27059 c 0.11406,-0.0853 0.24312,-0.12312 0.36875,-0.12312 0.33905,0 0.65217,0.27437 0.57374,0.62686 l -0.8403,3.77338 0.83998,3.77307 c 0.0784,0.35249 -0.23499,0.62687 -0.57374,0.62687 -0.12562,0 -0.25468,-0.0378 -0.36874,-0.12313 l -3.03245,-2.27059 c -1.518107,1.61092 -4.246482,3.4937 -7.370164,3.4937 -4.773033,0 -8.642322,-4.39993 -8.642322,-5.49992 0,-1.09998 3.869289,-5.49991 8.642322,-5.49991 z m 0,9.99984 c 2.688065,0 5.19395,-1.64247 6.642674,-3.17932 l 0.61249,-0.64968 0.71467,0.53499 2.13528,1.59904 -0.57593,-2.58746 -0.0484,-0.21718 0.0484,-0.21719 0.57593,-2.58746 -2.13528,1.59904 -0.71467,0.53499 -0.61249,-0.64968 c -1.448724,-1.53747 -3.954609,-3.17995 -6.642674,-3.17995 -3.923679,0 -7.262978,3.47901 -7.626718,4.49993 0.36374,1.02093 3.703039,4.49993 7.626718,4.49993 z m -2.642445,-5.24992 c 0.414047,0 0.749977,0.33562 0.749977,0.74999 0,0.41406 -0.33593,0.74999 -0.749977,0.74999 -0.414057,0 -0.749987,-0.33593 -0.749987,-0.74999 0,-0.41437 0.33593,-0.74999 0.749987,-0.74999 z"
       id="path3167" />
    <path
       id="path3169"
       d="m 94.425913,242.63745 c 3.123682,0 5.852057,1.88278 7.370477,3.49338 l 3.03245,-2.27059 c 0.11406,-0.0853 0.24312,-0.12312 0.36875,-0.12312 0.33905,0 0.65217,0.27437 0.57374,0.62686 l -0.8403,3.77338 0.83998,3.77307 c 0.0784,0.35249 -0.23499,0.62687 -0.57374,0.62687 -0.12562,0 -0.25468,-0.0378 -0.36874,-0.12313 l -3.03245,-2.27059 c -1.51811,1.61092 -4.246485,3.4937 -7.370167,3.4937 -4.773033,0 -8.642322,-4.39993 -8.642322,-5.49992 0,-1.09998 3.869289,-5.49991 8.642322,-5.49991 z m 0,9.99984 c 2.688065,0 5.19395,-1.64247 6.642677,-3.17932 l 0.61249,-0.64968 0.71467,0.53499 2.13528,1.59904 -0.57593,-2.58746 -0.0484,-0.21718 0.0484,-0.21719 0.57593,-2.58746 -2.13528,1.59904 -0.71467,0.53499 -0.61249,-0.64968 c -1.448727,-1.53747 -3.954612,-3.17995 -6.642677,-3.17995 -3.923679,0 -7.262978,3.47901 -7.626718,4.49993 0.36374,1.02093 3.703039,4.49993 7.626718,4.49993 z m -2.642445,-5.24992 c 0.414047,0 0.749977,0.33562 0.749977,0.74999 0,0.41406 -0.33593,0.74999 -0.749977,0.74999 -0.414057,0 -0.749987,-0.33593 -0.749987,-0.74999 0,-0.41437 0.33593,-0.74999 0.749987,-0.74999 z"
       style="fill:#666666;fill-opacity:1;stroke-width:0.26458332" />
    <path
       id="path3171"
       d="m 100.24675,199.77468 c 3.1237,0 5.85209,1.88278 7.37051,3.49338 l 3.03245,-2.27059 c 0.11406,-0.0853 0.24312,-0.12312 0.36875,-0.12312 0.33905,0 0.65217,0.27437 0.57374,0.62686 l -0.8403,3.77338 0.83998,3.77307 c 0.0784,0.35249 -0.23499,0.62687 -0.57374,0.62687 -0.12562,0 -0.25468,-0.0378 -0.36874,-0.12313 l -3.03245,-2.27059 c -1.51811,1.61092 -4.2465,3.4937 -7.3702,3.4937 -4.773033,0 -8.642322,-4.39993 -8.642322,-5.49992 0,-1.09998 3.869289,-5.49991 8.642322,-5.49991 z m 0,9.99984 c 2.68808,0 5.19398,-1.64247 6.64271,-3.17932 l 0.61249,-0.64968 0.71467,0.53499 2.13528,1.59904 -0.57593,-2.58746 -0.0484,-0.21718 0.0484,-0.21719 0.57593,-2.58746 -2.13528,1.59904 -0.71467,0.53499 -0.61249,-0.64968 c -1.44873,-1.53747 -3.95463,-3.17995 -6.64271,-3.17995 -3.923679,0 -7.262978,3.47901 -7.626718,4.49993 0.36374,1.02093 3.703039,4.49993 7.626718,4.49993 z m -2.642445,-5.24992 c 0.414047,0 0.749977,0.33562 0.749977,0.74999 0,0.41406 -0.33593,0.74999 -0.749977,0.74999 -0.414057,0 -0.749987,-0.33593 -0.749987,-0.74999 0,-0.41437 0.33593,-0.74999 0.749987,-0.74999 z"
       style="fill:#666666;fill-opacity:1;stroke-width:0.26458332" />
    <path
       id="path3173"
       d="m 99.188416,224.1165 c 3.123694,0 5.852084,1.88278 7.370504,3.49338 l 3.03245,-2.27059 c 0.11406,-0.0853 0.24312,-0.12312 0.36875,-0.12312 0.33905,0 0.65217,0.27437 0.57374,0.62686 l -0.8403,3.77338 0.83998,3.77307 c 0.0784,0.35249 -0.23499,0.62687 -0.57374,0.62687 -0.12562,0 -0.25468,-0.0378 -0.36874,-0.12313 l -3.03245,-2.27059 c -1.51811,1.61092 -4.2465,3.4937 -7.370194,3.4937 -4.773033,0 -8.642322,-4.39993 -8.642322,-5.49992 0,-1.09998 3.869289,-5.49991 8.642322,-5.49991 z m 0,9.99984 c 2.688074,0 5.193974,-1.64247 6.642704,-3.17932 l 0.61249,-0.64968 0.71467,0.53499 2.13528,1.59904 -0.57593,-2.58746 -0.0484,-0.21718 0.0484,-0.21719 0.57593,-2.58746 -2.13528,1.59904 -0.71467,0.53499 -0.61249,-0.64968 c -1.44873,-1.53747 -3.95463,-3.17995 -6.642704,-3.17995 -3.923679,0 -7.262978,3.47901 -7.626718,4.49993 0.36374,1.02093 3.703039,4.49993 7.626718,4.49993 z m -2.642445,-5.24992 c 0.414047,0 0.749977,0.33562 0.749977,0.74999 0,0.41406 -0.33593,0.74999 -0.749977,0.74999 -0.414057,0 -0.749987,-0.33593 -0.749987,-0.74999 0,-0.41437 0.33593,-0.74999 0.749987,-0.74999 z"
       style="fill:#666666;fill-opacity:1;stroke-width:0.26458332" />
  </g>
</svg>
