<?xml version="1.0" encoding="UTF-8" standalone="no"?>
<!-- Created with Inkscape (http://www.inkscape.org/) -->

<svg
   width="1400"
   height="600"
   viewBox="0 0 370.41666 158.75"
   version="1.1"
   id="svg1234"
   >
  <g
     id="layer1"
     transform="translate(0,-138.25)">
    <path
       id="path917"
       d="m 209.78432,172.18134 c 3.12395,0 5.85207,1.90174 7.37047,3.52882 l 3.03228,-2.2934 c 0.42118,-0.31875 1.05,0.0208 0.94236,0.50903 l -0.83958,3.8111 0.83993,3.81145 c 0.10764,0.48819 -0.52118,0.82743 -0.94236,0.50902 l -3.03228,-2.29339 c -1.5184,1.62673 -4.24687,3.52846 -7.37082,3.52846 -4.77291,0 -8.64234,-4.44443 -8.64234,-5.55554 0,-1.11111 3.86943,-5.55555 8.64234,-5.55555 z m -3.03576,6.38888 c 0.46007,0 0.83333,-0.37326 0.83333,-0.83333 0,-0.46042 -0.37326,-0.83333 -0.83333,-0.83333 -0.46041,0 -0.83333,0.37291 -0.83333,0.83333 0,0.46007 0.37326,0.83333 0.83333,0.83333 z"
       style="fill:#e0e0e0;fill-opacity:1;stroke-width:0.26458332" />
    <path
       style="fill:#e0e0e0;fill-opacity:1;stroke-width:0.26458332"
       d="m 232.90964,173.76917 c 3.12395,0 5.85207,1.90174 7.37047,3.52882 l 3.03228,-2.2934 c 0.42118,-0.31875 1.05,0.0208 0.94236,0.50903 l -0.83958,3.8111 0.83993,3.81145 c 0.10764,0.48819 -0.52118,0.82743 -0.94236,0.50902 l -3.03228,-2.29339 c -1.5184,1.62673 -4.24687,3.52846 -7.37082,3.52846 -4.77291,0 -8.64234,-4.44443 -8.64234,-5.55554 0,-1.11111 3.86943,-5.55555 8.64234,-5.55555 z m -3.03576,6.38888 c 0.46007,0 0.83333,-0.37326 0.83333,-0.83333 0,-0.46042 -0.37326,-0.83333 -0.83333,-0.83333 -0.46041,0 -0.83333,0.37291 -0.83333,0.83333 0,0.46007 0.37326,0.83333 0.83333,0.83333 z"
       id="path919" />
    <path
       id="path921"
       d="m 223.71874,185.28173 c 3.12395,0 5.85207,1.90174 7.37047,3.52882 l 3.03228,-2.2934 c 0.42118,-0.31875 1.05,0.0208 0.94236,0.50903 l -0.83958,3.8111 0.83993,3.81145 c 0.10764,0.48819 -0.52118,0.82743 -0.94236,0.50902 l -3.03228,-2.29339 c -1.5184,1.62673 -4.24687,3.52846 -7.37082,3.52846 -4.77291,0 -8.64234,-4.44443 -8.64234,-5.55554 0,-1.11111 3.86943,-5.55555 8.64234,-5.55555 z m -3.03576,6.38888 c 0.46007,0 0.83333,-0.37326 0.83333,-0.83333 0,-0.46042 -0.37326,-0.83333 -0.83333,-0.83333 -0.46041,0 -0.83333,0.37291 -0.83333,0.83333 0,0.46007 0.37326,0.83333 0.83333,0.83333 z"
       style="fill:#e0e0e0;fill-opacity:1;stroke-width:0.26458332" />
    <path
       style="fill:#e0e0e0;fill-opacity:1;stroke-width:0.26458332"
       d="m 209.78432,198.11067 c 3.12395,0 5.85207,1.90174 7.37047,3.52882 l 3.03228,-2.2934 c 0.42118,-0.31875 1.05,0.0208 0.94236,0.50903 l -0.83958,3.8111 0.83993,3.81145 c 0.10764,0.48819 -0.52118,0.82743 -0.94236,0.50902 l -3.03228,-2.29339 c -1.5184,1.62673 -4.24687,3.52846 -7.37082,3.52846 -4.77291,0 -8.64234,-4.44443 -8.64234,-5.55554 0,-1.11111 3.86943,-5.55555 8.64234,-5.55555 z m -3.03576,6.38888 c 0.46007,0 0.83333,-0.37326 0.83333,-0.83333 0,-0.46042 -0.37326,-0.83333 -0.83333,-0.83333 -0.46041,0 -0.83333,0.37291 -0.83333,0.83333 0,0.46007 0.37326,0.83333 0.83333,0.83333 z"
       id="path923" />
    <path
       id="path925"
       d="m 209.78432,225.09834 c 3.12395,0 5.85207,1.90174 7.37047,3.52882 l 3.03228,-2.2934 c 0.42118,-0.31875 1.05,0.0208 0.94236,0.50903 l -0.83958,3.8111 0.83993,3.81145 c 0.10764,0.48819 -0.52118,0.82743 -0.94236,0.50902 l -3.03228,-2.29339 c -1.5184,1.62673 -4.24687,3.52846 -7.37082,3.52846 -4.77291,0 -8.64234,-4.44443 -8.64234,-5.55554 0,-1.11111 3.86943,-5.55555 8.64234,-5.55555 z m -3.03576,6.38888 c 0.46007,0 0.83333,-0.37326 0.83333,-0.83333 0,-0.46042 -0.37326,-0.83333 -0.83333,-0.83333 -0.46041,0 -0.83333,0.37291 -0.83333,0.83333 0,0.46007 0.37326,0.83333 0.83333,0.83333 z"
       style="fill:#e0e0e0;fill-opacity:1;stroke-width:0.26458332" />
    <path
       style="fill:#e0e0e0;fill-opacity:1;stroke-width:0.26458332"
       d="m 209.78432,251.02767 c 3.12395,0 5.85207,1.90174 7.37047,3.52882 l 3.03228,-2.2934 c 0.42118,-0.31875 1.05,0.0208 0.94236,0.50903 l -0.83958,3.8111 0.83993,3.81145 c 0.10764,0.48819 -0.52118,0.82743 -0.94236,0.50902 l -3.03228,-2.29339 c -1.5184,1.62673 -4.24687,3.52846 -7.37082,3.52846 -4.77291,0 -8.64234,-4.44443 -8.64234,-5.55554 0,-1.11111 3.86943,-5.55555 8.64234,-5.55555 z m -3.03576,6.38888 c 0.46007,0 0.83333,-0.37326 0.83333,-0.83333 0,-0.46042 -0.37326,-0.83333 -0.83333,-0.83333 -0.46041,0 -0.83333,0.37291 -0.83333,0.83333 0,0.46007 0.37326,0.83333 0.83333,0.83333 z"
       id="path927" />
    <path
       id="path929"
       d="m 223.71874,238.19873 c 3.12395,0 5.85207,1.90174 7.37047,3.52882 l 3.03228,-2.2934 c 0.42118,-0.31875 1.05,0.0208 0.94236,0.50903 l -0.83958,3.8111 0.83993,3.81145 c 0.10764,0.48819 -0.52118,0.82743 -0.94236,0.50902 l -3.03228,-2.29339 c -1.5184,1.62673 -4.24687,3.52846 -7.37082,3.52846 -4.77291,0 -8.64234,-4.44443 -8.64234,-5.55554 0,-1.11111 3.86943,-5.55555 8.64234,-5.55555 z m -3.03576,6.38888 c 0.46007,0 0.83333,-0.37326 0.83333,-0.83333 0,-0.46042 -0.37326,-0.83333 -0.83333,-0.83333 -0.46041,0 -0.83333,0.37291 -0.83333,0.83333 0,0.46007 0.37326,0.83333 0.83333,0.83333 z"
       style="fill:#e0e0e0;fill-opacity:1;stroke-width:0.26458332" />
    <path
       style="fill:#e0e0e0;fill-opacity:1;stroke-width:0.26458332"
       d="m 232.90933,248.84774 c 3.12395,0 5.85207,1.90174 7.37047,3.52882 l 3.03228,-2.2934 c 0.42118,-0.31875 1.05,0.0208 0.94236,0.50903 l -0.83958,3.8111 0.83993,3.81145 c 0.10764,0.48819 -0.52118,0.82743 -0.94236,0.50902 l -3.03228,-2.29339 c -1.5184,1.62673 -4.24687,3.52846 -7.37082,3.52846 -4.77291,0 -8.64234,-4.44443 -8.64234,-5.55554 0,-1.11111 3.86943,-5.55555 8.64234,-5.55555 z m -3.03576,6.38888 c 0.46007,0 0.83333,-0.37326 0.83333,-0.83333 0,-0.46042 -0.37326,-0.83333 -0.83333,-0.83333 -0.46041,0 -0.83333,0.37291 -0.83333,0.83333 0,0.46007 0.37326,0.83333 0.83333,0.83333 z"
       id="path931" />
    <path
       id="path933"
       d="m 235.18448,224.56917 c 3.12395,0 5.85207,1.90174 7.37047,3.52882 l 3.03228,-2.2934 c 0.42118,-0.31875 1.05,0.0208 0.94236,0.50903 l -0.83958,3.8111 0.83993,3.81145 c 0.10764,0.48819 -0.52118,0.82743 -0.94236,0.50902 l -3.03228,-2.29339 c -1.5184,1.62673 -4.24687,3.52846 -7.37082,3.52846 -4.77291,0 -8.64234,-4.44443 -8.64234,-5.55554 0,-1.11111 3.86943,-5.55555 8.64234,-5.55555 z m -3.03576,6.38888 c 0.46007,0 0.83333,-0.37326 0.83333,-0.83333 0,-0.46042 -0.37326,-0.83333 -0.83333,-0.83333 -0.46041,0 -0.83333,0.37291 -0.83333,0.83333 0,0.46007 0.37326,0.83333 0.83333,0.83333 z"
       style="fill:#e0e0e0;fill-opacity:1;stroke-width:0.26458332" />
    <path
       style="fill:#e0e0e0;fill-opacity:1;stroke-width:0.26458332"
       d="m 235.18448,198.63984 c 3.12395,0 5.85207,1.90174 7.37047,3.52882 l 3.03228,-2.2934 c 0.42118,-0.31875 1.05,0.0208 0.94236,0.50903 l -0.83958,3.8111 0.83993,3.81145 c 0.10764,0.48819 -0.52118,0.82743 -0.94236,0.50902 l -3.03228,-2.29339 c -1.5184,1.62673 -4.24687,3.52846 -7.37082,3.52846 -4.77291,0 -8.64234,-4.44443 -8.64234,-5.55554 0,-1.11111 3.86943,-5.55555 8.64234,-5.55555 z m -3.03576,6.38888 c 0.46007,0 0.83333,-0.37326 0.83333,-0.83333 0,-0.46042 -0.37326,-0.83333 -0.83333,-0.83333 -0.46041,0 -0.83333,0.37291 -0.83333,0.83333 0,0.46007 0.37326,0.83333 0.83333,0.83333 z"
       id="path935" />
    <path
       id="path937"
       d="m 248.41408,184.33038 c 3.12395,0 5.85207,1.90174 7.37047,3.52882 l 3.03228,-2.2934 c 0.42118,-0.31875 1.05,0.0208 0.94236,0.50903 l -0.83958,3.8111 0.83993,3.81145 c 0.10764,0.48819 -0.52118,0.82743 -0.94236,0.50902 l -3.03228,-2.29339 c -1.5184,1.62673 -4.24687,3.52846 -7.37082,3.52846 -4.77291,0 -8.64234,-4.44443 -8.64234,-5.55554 0,-1.11111 3.86943,-5.55555 8.64234,-5.55555 z m -3.03576,6.38888 c 0.46007,0 0.83333,-0.37326 0.83333,-0.83333 0,-0.46042 -0.37326,-0.83333 -0.83333,-0.83333 -0.46041,0 -0.83333,0.37291 -0.83333,0.83333 0,0.46007 0.37326,0.83333 0.83333,0.83333 z"
       style="fill:#e0e0e0;fill-opacity:1;stroke-width:0.26458332" />
    <path
       style="fill:#e0e0e0;fill-opacity:1;stroke-width:0.26458332"
       d="m 263.75966,198.63984 c 3.12395,0 5.85207,1.90174 7.37047,3.52882 l 3.03228,-2.2934 c 0.42118,-0.31875 1.05,0.0208 0.94236,0.50903 l -0.83958,3.8111 0.83993,3.81145 c 0.10764,0.48819 -0.52118,0.82743 -0.94236,0.50902 l -3.03228,-2.29339 c -1.5184,1.62673 -4.24687,3.52846 -7.37082,3.52846 -4.77291,0 -8.64234,-4.44443 -8.64234,-5.55554 0,-1.11111 3.86943,-5.55555 8.64234,-5.55555 z m -3.03576,6.38888 c 0.46007,0 0.83333,-0.37326 0.83333,-0.83333 0,-0.46042 -0.37326,-0.83333 -0.83333,-0.83333 -0.46041,0 -0.83333,0.37291 -0.83333,0.83333 0,0.46007 0.37326,0.83333 0.83333,0.83333 z"
       id="path939" />
    <path
       id="path941"
       d="m 249.1189,211.74023 c 3.12395,0 5.85207,1.90174 7.37047,3.52882 l 3.03228,-2.2934 c 0.42118,-0.31875 1.05,0.0208 0.94236,0.50903 l -0.83958,3.8111 0.83993,3.81145 c 0.10764,0.48819 -0.52118,0.82743 -0.94236,0.50902 l -3.03228,-2.29339 c -1.5184,1.62673 -4.24687,3.52846 -7.37082,3.52846 -4.77291,0 -8.64234,-4.44443 -8.64234,-5.55554 0,-1.11111 3.86943,-5.55555 8.64234,-5.55555 z m -3.03576,6.38888 c 0.46007,0 0.83333,-0.37326 0.83333,-0.83333 0,-0.46042 -0.37326,-0.83333 -0.83333,-0.83333 -0.46041,0 -0.83333,0.37291 -0.83333,0.83333 0,0.46007 0.37326,0.83333 0.83333,0.83333 z"
       style="fill:#e0e0e0;fill-opacity:1;stroke-width:0.26458332" />
    <path
       style="fill:#e0e0e0;fill-opacity:1;stroke-width:0.26458332"
       d="m 248.41373,238.32759 c 3.12395,0 5.85207,1.90174 7.37047,3.52882 l 3.03228,-2.2934 c 0.42118,-0.31875 1.05,0.0208 0.94236,0.50903 l -0.83958,3.8111 0.83993,3.81145 c 0.10764,0.48819 -0.52118,0.82743 -0.94236,0.50902 l -3.03228,-2.29339 c -1.5184,1.62673 -4.24687,3.52846 -7.37082,3.52846 -4.77291,0 -8.64234,-4.44443 -8.64234,-5.55554 0,-1.11111 3.86943,-5.55555 8.64234,-5.55555 z m -3.03576,6.38888 c 0.46007,0 0.83333,-0.37326 0.83333,-0.83333 0,-0.46042 -0.37326,-0.83333 -0.83333,-0.83333 -0.46041,0 -0.83333,0.37291 -0.83333,0.83333 0,0.46007 0.37326,0.83333 0.83333,0.83333 z"
       id="path943" />
    <path
       id="path945"
       d="m 263.75966,224.56917 c 3.12395,0 5.85207,1.90174 7.37047,3.52882 l 3.03228,-2.2934 c 0.42118,-0.31875 1.05,0.0208 0.94236,0.50903 l -0.83958,3.8111 0.83993,3.81145 c 0.10764,0.48819 -0.52118,0.82743 -0.94236,0.50902 l -3.03228,-2.29339 c -1.5184,1.62673 -4.24687,3.52846 -7.37082,3.52846 -4.77291,0 -8.64234,-4.44443 -8.64234,-5.55554 0,-1.11111 3.86943,-5.55555 8.64234,-5.55555 z m -3.03576,6.38888 c 0.46007,0 0.83333,-0.37326 0.83333,-0.83333 0,-0.46042 -0.37326,-0.83333 -0.83333,-0.83333 -0.46041,0 -0.83333,0.37291 -0.83333,0.83333 0,0.46007 0.37326,0.83333 0.83333,0.83333 z"
       style="fill:#e0e0e0;fill-opacity:1;stroke-width:0.26458332" />
    <path
       style="fill:#e0e0e0;fill-opacity:1;stroke-width:0.26458332"
       d="m 277.69408,211.74023 c 3.12395,0 5.85207,1.90174 7.37047,3.52882 l 3.03228,-2.2934 c 0.42118,-0.31875 1.05,0.0208 0.94236,0.50903 l -0.83958,3.8111 0.83993,3.81145 c 0.10764,0.48819 -0.52118,0.82743 -0.94236,0.50902 l -3.03228,-2.29339 c -1.5184,1.62673 -4.24687,3.52846 -7.37082,3.52846 -4.77291,0 -8.64234,-4.44443 -8.64234,-5.55554 0,-1.11111 3.86943,-5.55555 8.64234,-5.55555 z m -3.03576,6.38888 c 0.46007,0 0.83333,-0.37326 0.83333,-0.83333 0,-0.46042 -0.37326,-0.83333 -0.83333,-0.83333 -0.46041,0 -0.83333,0.37291 -0.83333,0.83333 0,0.46007 0.37326,0.83333 0.83333,0.83333 z"
       id="path947" />
    <path
       id="path866"
       d="m 95.661182,184.53664 c 3.12395,0 5.852068,1.90174 7.370468,3.52882 l 3.03228,-2.2934 c 0.42118,-0.31875 1.05,0.0208 0.94236,0.50903 l -0.83958,3.8111 0.83993,3.81145 c 0.10764,0.48819 -0.52118,0.82743 -0.94236,0.50902 l -3.03228,-2.29339 c -1.5184,1.62673 -4.246868,3.52846 -7.370818,3.52846 -4.772909,0 -8.64234,-4.44443 -8.64234,-5.55554 0,-1.11111 3.869431,-5.55555 8.64234,-5.55555 z m -3.035759,6.38888 c 0.46007,0 0.83333,-0.37326 0.83333,-0.83333 0,-0.46042 -0.37326,-0.83333 -0.83333,-0.83333 -0.46041,0 -0.83333,0.37291 -0.83333,0.83333 0,0.46007 0.37326,0.83333 0.83333,0.83333 z"
       style="stroke-width:0.26458332;fill:#e0e0e0;fill-opacity:1" />
    <path
       style="fill:#e0e0e0;fill-opacity:1;stroke-width:0.26458332"
       d="m 194.28058,162.68161 c 3.12395,0 5.85207,1.90174 7.37047,3.52882 l 3.03228,-2.2934 c 0.42118,-0.31875 1.05,0.0208 0.94236,0.50903 l -0.83958,3.8111 0.83993,3.81145 c 0.10764,0.48819 -0.52118,0.82743 -0.94236,0.50902 l -3.03228,-2.29339 c -1.5184,1.62673 -4.24687,3.52846 -7.37082,3.52846 -4.77291,0 -8.64234,-4.44443 -8.64234,-5.55554 0,-1.11111 3.86943,-5.55555 8.64234,-5.55555 z m -3.03576,6.38888 c 0.46007,0 0.83333,-0.37326 0.83333,-0.83333 0,-0.46042 -0.37326,-0.83333 -0.83333,-0.83333 -0.46041,0 -0.83333,0.37291 -0.83333,0.83333 0,0.46007 0.37326,0.83333 0.83333,0.83333 z"
       id="path867" />
    <path
       id="path869"
       d="m 195.14422,186.9103 c 3.12395,0 5.85207,1.90174 7.37047,3.52882 l 3.03228,-2.2934 c 0.42118,-0.31875 1.05,0.0208 0.94236,0.50903 l -0.83958,3.8111 0.83993,3.81145 c 0.10764,0.48819 -0.52118,0.82743 -0.94236,0.50902 l -3.03228,-2.29339 c -1.5184,1.62673 -4.24687,3.52846 -7.37082,3.52846 -4.77291,0 -8.64234,-4.44443 -8.64234,-5.55554 0,-1.11111 3.86943,-5.55555 8.64234,-5.55555 z m -3.03576,6.38888 c 0.46007,0 0.83333,-0.37326 0.83333,-0.83333 0,-0.46042 -0.37326,-0.83333 -0.83333,-0.83333 -0.46041,0 -0.83333,0.37291 -0.83333,0.83333 0,0.46007 0.37326,0.83333 0.83333,0.83333 z"
       style="fill:#e0e0e0;fill-opacity:1;stroke-width:0.26458332" />
    <path
       style="fill:#e0e0e0;fill-opacity:1;stroke-width:0.26458332"
       d="m 195.14356,211.87619 c 3.12395,0 5.85207,1.90174 7.37047,3.52882 l 3.03228,-2.2934 c 0.42118,-0.31875 1.05,0.0208 0.94236,0.50903 l -0.83958,3.8111 0.83993,3.81145 c 0.10764,0.48819 -0.52118,0.82743 -0.94236,0.50902 l -3.03228,-2.29339 c -1.5184,1.62673 -4.24687,3.52846 -7.37082,3.52846 -4.77291,0 -8.64234,-4.44443 -8.64234,-5.55554 0,-1.11111 3.86943,-5.55555 8.64234,-5.55555 z m -3.03576,6.38888 c 0.46007,0 0.83333,-0.37326 0.83333,-0.83333 0,-0.46042 -0.37326,-0.83333 -0.83333,-0.83333 -0.46041,0 -0.83333,0.37291 -0.83333,0.83333 0,0.46007 0.37326,0.83333 0.83333,0.83333 z"
       id="path871" />
    <path
       id="path873"
       d="m 195.14356,238.19873 c 3.12395,0 5.85207,1.90174 7.37047,3.52882 l 3.03228,-2.2934 c 0.42118,-0.31875 1.05,0.0208 0.94236,0.50903 l -0.83958,3.8111 0.83993,3.81145 c 0.10764,0.48819 -0.52118,0.82743 -0.94236,0.50902 l -3.03228,-2.29339 c -1.5184,1.62673 -4.24687,3.52846 -7.37082,3.52846 -4.77291,0 -8.64234,-4.44443 -8.64234,-5.55554 0,-1.11111 3.86943,-5.55555 8.64234,-5.55555 z m -3.03576,6.38888 c 0.46007,0 0.83333,-0.37326 0.83333,-0.83333 0,-0.46042 -0.37326,-0.83333 -0.83333,-0.83333 -0.46041,0 -0.83333,0.37291 -0.83333,0.83333 0,0.46007 0.37326,0.83333 0.83333,0.83333 z"
       style="fill:#e0e0e0;fill-opacity:1;stroke-width:0.26458332" />
    <path
       style="fill:#e0e0e0;fill-opacity:1;stroke-width:0.26458332"
       d="m 194.27992,261.54782 c 3.12395,0 5.85207,1.90174 7.37047,3.52882 l 3.03228,-2.2934 c 0.42118,-0.31875 1.05,0.0208 0.94236,0.50903 l -0.83958,3.8111 0.83993,3.81145 c 0.10764,0.48819 -0.52118,0.82743 -0.94236,0.50902 l -3.03228,-2.29339 c -1.5184,1.62673 -4.24687,3.52846 -7.37082,3.52846 -4.77291,0 -8.64234,-4.44443 -8.64234,-5.55554 0,-1.11111 3.86943,-5.55555 8.64234,-5.55555 z m -3.03576,6.38888 c 0.46007,0 0.83333,-0.37326 0.83333,-0.83333 0,-0.46042 -0.37326,-0.83333 -0.83333,-0.83333 -0.46041,0 -0.83333,0.37291 -0.83333,0.83333 0,0.46007 0.37326,0.83333 0.83333,0.83333 z"
       id="path875" />
    <path
       id="path877"
       d="m 177.50495,251.02767 c 3.12395,0 5.85207,1.90174 7.37047,3.52882 l 3.03228,-2.2934 c 0.42118,-0.31875 1.05,0.0208 0.94236,0.50903 l -0.83958,3.8111 0.83993,3.81145 c 0.10764,0.48819 -0.52118,0.82743 -0.94236,0.50902 l -3.03228,-2.29339 c -1.5184,1.62673 -4.24687,3.52846 -7.37082,3.52846 -4.77291,0 -8.64234,-4.44443 -8.64234,-5.55554 0,-1.11111 3.86943,-5.55555 8.64234,-5.55555 z m -3.03576,6.38888 c 0.46007,0 0.83333,-0.37326 0.83333,-0.83333 0,-0.46042 -0.37326,-0.83333 -0.83333,-0.83333 -0.46041,0 -0.83333,0.37291 -0.83333,0.83333 0,0.46007 0.37326,0.83333 0.83333,0.83333 z"
       style="fill:#e0e0e0;fill-opacity:1;stroke-width:0.26458332" />
    <path
       style="fill:#e0e0e0;fill-opacity:1;stroke-width:0.26458332"
       d="m 177.50495,225.09834 c 3.12395,0 5.85207,1.90174 7.37047,3.52882 l 3.03228,-2.2934 c 0.42118,-0.31875 1.05,0.0208 0.94236,0.50903 l -0.83958,3.8111 0.83993,3.81145 c 0.10764,0.48819 -0.52118,0.82743 -0.94236,0.50902 l -3.03228,-2.29339 c -1.5184,1.62673 -4.24687,3.52846 -7.37082,3.52846 -4.77291,0 -8.64234,-4.44443 -8.64234,-5.55554 0,-1.11111 3.86943,-5.55555 8.64234,-5.55555 z m -3.03576,6.38888 c 0.46007,0 0.83333,-0.37326 0.83333,-0.83333 0,-0.46042 -0.37326,-0.83333 -0.83333,-0.83333 -0.46041,0 -0.83333,0.37291 -0.83333,0.83333 0,0.46007 0.37326,0.83333 0.83333,0.83333 z"
       id="path879" />
    <path
       id="path881"
       d="m 177.50495,199.69818 c 3.12395,0 5.85207,1.90174 7.37047,3.52882 l 3.03228,-2.2934 c 0.42118,-0.31875 1.05,0.0208 0.94236,0.50903 l -0.83958,3.8111 0.83993,3.81145 c 0.10764,0.48819 -0.52118,0.82743 -0.94236,0.50902 l -3.03228,-2.29339 c -1.5184,1.62673 -4.24687,3.52846 -7.37082,3.52846 -4.77291,0 -8.64234,-4.44443 -8.64234,-5.55554 0,-1.11111 3.86943,-5.55555 8.64234,-5.55555 z m -3.03576,6.38888 c 0.46007,0 0.83333,-0.37326 0.83333,-0.83333 0,-0.46042 -0.37326,-0.83333 -0.83333,-0.83333 -0.46041,0 -0.83333,0.37291 -0.83333,0.83333 0,0.46007 0.37326,0.83333 0.83333,0.83333 z"
       style="fill:#e0e0e0;fill-opacity:1;stroke-width:0.26458332" />
    <path
       style="fill:#e0e0e0;fill-opacity:1;stroke-width:0.26458332"
       d="m 177.50495,173.76885 c 3.12395,0 5.85207,1.90174 7.37047,3.52882 l 3.03228,-2.2934 c 0.42118,-0.31875 1.05,0.0208 0.94236,0.50903 l -0.83958,3.8111 0.83993,3.81145 c 0.10764,0.48819 -0.52118,0.82743 -0.94236,0.50902 l -3.03228,-2.29339 c -1.5184,1.62673 -4.24687,3.52846 -7.37082,3.52846 -4.77291,0 -8.64234,-4.44443 -8.64234,-5.55554 0,-1.11111 3.86943,-5.55555 8.64234,-5.55555 z m -3.03576,6.38888 c 0.46007,0 0.83333,-0.37326 0.83333,-0.83333 0,-0.46042 -0.37326,-0.83333 -0.83333,-0.83333 -0.46041,0 -0.83333,0.37291 -0.83333,0.83333 0,0.46007 0.37326,0.83333 0.83333,0.83333 z"
       id="path883" />
    <path
       style="fill:#e0e0e0;fill-opacity:1;stroke-width:0.26458332"
       d="m 165.3347,186.9103 c 3.12395,0 5.85207,1.90174 7.37047,3.52882 l 3.03228,-2.2934 c 0.42118,-0.31875 1.05,0.0208 0.94236,0.50903 l -0.83958,3.8111 0.83993,3.81145 c 0.10764,0.48819 -0.52118,0.82743 -0.94236,0.50902 l -3.03228,-2.29339 c -1.5184,1.62673 -4.24687,3.52846 -7.37082,3.52846 -4.77291,0 -8.64234,-4.44443 -8.64234,-5.55554 0,-1.11111 3.86943,-5.55555 8.64234,-5.55555 z m -3.03576,6.38888 c 0.46007,0 0.83333,-0.37326 0.83333,-0.83333 0,-0.46042 -0.37326,-0.83333 -0.83333,-0.83333 -0.46041,0 -0.83333,0.37291 -0.83333,0.83333 0,0.46007 0.37326,0.83333 0.83333,0.83333 z"
       id="path885" />
    <path
       id="path887"
       d="m 165.33404,211.87619 c 3.12395,0 5.85207,1.90174 7.37047,3.52882 l 3.03228,-2.2934 c 0.42118,-0.31875 1.05,0.0208 0.94236,0.50903 l -0.83958,3.8111 0.83993,3.81145 c 0.10764,0.48819 -0.52118,0.82743 -0.94236,0.50902 l -3.03228,-2.29339 c -1.5184,1.62673 -4.24687,3.52846 -7.37082,3.52846 -4.77291,0 -8.64234,-4.44443 -8.64234,-5.55554 0,-1.11111 3.86943,-5.55555 8.64234,-5.55555 z m -3.03576,6.38888 c 0.46007,0 0.83333,-0.37326 0.83333,-0.83333 0,-0.46042 -0.37326,-0.83333 -0.83333,-0.83333 -0.46041,0 -0.83333,0.37291 -0.83333,0.83333 0,0.46007 0.37326,0.83333 0.83333,0.83333 z"
       style="fill:#e0e0e0;fill-opacity:1;stroke-width:0.26458332" />
    <path
       style="fill:#e0e0e0;fill-opacity:1;stroke-width:0.26458332"
       d="m 165.33404,238.19873 c 3.12395,0 5.85207,1.90174 7.37047,3.52882 l 3.03228,-2.2934 c 0.42118,-0.31875 1.05,0.0208 0.94236,0.50903 l -0.83958,3.8111 0.83993,3.81145 c 0.10764,0.48819 -0.52118,0.82743 -0.94236,0.50902 l -3.03228,-2.29339 c -1.5184,1.62673 -4.24687,3.52846 -7.37082,3.52846 -4.77291,0 -8.64234,-4.44443 -8.64234,-5.55554 0,-1.11111 3.86943,-5.55555 8.64234,-5.55555 z m -3.03576,6.38888 c 0.46007,0 0.83333,-0.37326 0.83333,-0.83333 0,-0.46042 -0.37326,-0.83333 -0.83333,-0.83333 -0.46041,0 -0.83333,0.37291 -0.83333,0.83333 0,0.46007 0.37326,0.83333 0.83333,0.83333 z"
       id="path889" />
    <path
       id="path891"
       d="m 139.93454,186.9103 c 3.12395,0 5.85207,1.90174 7.37047,3.52882 l 3.03228,-2.2934 c 0.42118,-0.31875 1.05,0.0208 0.94236,0.50903 l -0.83958,3.8111 0.83993,3.81145 c 0.10764,0.48819 -0.52118,0.82743 -0.94236,0.50902 l -3.03228,-2.29339 c -1.5184,1.62673 -4.24687,3.52846 -7.37082,3.52846 -4.77291,0 -8.64234,-4.44443 -8.64234,-5.55554 0,-1.11111 3.86943,-5.55555 8.64234,-5.55555 z m -3.03576,6.38888 c 0.46007,0 0.83333,-0.37326 0.83333,-0.83333 0,-0.46042 -0.37326,-0.83333 -0.83333,-0.83333 -0.46041,0 -0.83333,0.37291 -0.83333,0.83333 0,0.46007 0.37326,0.83333 0.83333,0.83333 z"
       style="fill:#e0e0e0;fill-opacity:1;stroke-width:0.26458332" />
    <path
       style="fill:#e0e0e0;fill-opacity:1;stroke-width:0.26458332"
       d="m 139.93388,211.87619 c 3.12395,0 5.85207,1.90174 7.37047,3.52882 l 3.03228,-2.2934 c 0.42118,-0.31875 1.05,0.0208 0.94236,0.50903 l -0.83958,3.8111 0.83993,3.81145 c 0.10764,0.48819 -0.52118,0.82743 -0.94236,0.50902 l -3.03228,-2.29339 c -1.5184,1.62673 -4.24687,3.52846 -7.37082,3.52846 -4.77291,0 -8.64234,-4.44443 -8.64234,-5.55554 0,-1.11111 3.86943,-5.55555 8.64234,-5.55555 z m -3.03576,6.38888 c 0.46007,0 0.83333,-0.37326 0.83333,-0.83333 0,-0.46042 -0.37326,-0.83333 -0.83333,-0.83333 -0.46041,0 -0.83333,0.37291 -0.83333,0.83333 0,0.46007 0.37326,0.83333 0.83333,0.83333 z"
       id="path893" />
    <path
       id="path895"
       d="m 139.93388,238.19873 c 3.12395,0 5.85207,1.90174 7.37047,3.52882 l 3.03228,-2.2934 c 0.42118,-0.31875 1.05,0.0208 0.94236,0.50903 l -0.83958,3.8111 0.83993,3.81145 c 0.10764,0.48819 -0.52118,0.82743 -0.94236,0.50902 l -3.03228,-2.29339 c -1.5184,1.62673 -4.24687,3.52846 -7.37082,3.52846 -4.77291,0 -8.64234,-4.44443 -8.64234,-5.55554 0,-1.11111 3.86943,-5.55555 8.64234,-5.55555 z m -3.03576,6.38888 c 0.46007,0 0.83333,-0.37326 0.83333,-0.83333 0,-0.46042 -0.37326,-0.83333 -0.83333,-0.83333 -0.46041,0 -0.83333,0.37291 -0.83333,0.83333 0,0.46007 0.37326,0.83333 0.83333,0.83333 z"
       style="fill:#e0e0e0;fill-opacity:1;stroke-width:0.26458332" />
    <path
       style="fill:#e0e0e0;fill-opacity:1;stroke-width:0.26458332"
       d="m 152.01889,251.41124 c 3.12395,0 5.85207,1.90174 7.37047,3.52882 l 3.03228,-2.2934 c 0.42118,-0.31875 1.05,0.0208 0.94236,0.50903 l -0.83958,3.8111 0.83993,3.81145 c 0.10764,0.48819 -0.52118,0.82743 -0.94236,0.50902 l -3.03228,-2.29339 c -1.5184,1.62673 -4.24687,3.52846 -7.37082,3.52846 -4.77291,0 -8.64234,-4.44443 -8.64234,-5.55554 0,-1.11111 3.86943,-5.55555 8.64234,-5.55555 z m -3.03576,6.38888 c 0.46007,0 0.83333,-0.37326 0.83333,-0.83333 0,-0.46042 -0.37326,-0.83333 -0.83333,-0.83333 -0.46041,0 -0.83333,0.37291 -0.83333,0.83333 0,0.46007 0.37326,0.83333 0.83333,0.83333 z"
       id="path897" />
    <path
       id="path899"
       d="m 149.45956,225.17484 c 3.12395,0 5.85207,1.90174 7.37047,3.52882 l 3.03228,-2.2934 c 0.42118,-0.31875 1.05,0.0208 0.94236,0.50903 l -0.83958,3.8111 0.83993,3.81145 c 0.10764,0.48819 -0.52118,0.82743 -0.94236,0.50902 l -3.03228,-2.29339 c -1.5184,1.62673 -4.24687,3.52846 -7.37082,3.52846 -4.77291,0 -8.64234,-4.44443 -8.64234,-5.55554 0,-1.11111 3.86943,-5.55555 8.64234,-5.55555 z m -3.03576,6.38888 c 0.46007,0 0.83333,-0.37326 0.83333,-0.83333 0,-0.46042 -0.37326,-0.83333 -0.83333,-0.83333 -0.46041,0 -0.83333,0.37291 -0.83333,0.83333 0,0.46007 0.37326,0.83333 0.83333,0.83333 z"
       style="fill:#e0e0e0;fill-opacity:1;stroke-width:0.26458332" />
    <path
       style="fill:#e0e0e0;fill-opacity:1;stroke-width:0.26458332"
       d="m 149.45894,199.69818 c 3.12395,0 5.85207,1.90174 7.37047,3.52882 l 3.03228,-2.2934 c 0.42118,-0.31875 1.05,0.0208 0.94236,0.50903 l -0.83958,3.8111 0.83993,3.81145 c 0.10764,0.48819 -0.52118,0.82743 -0.94236,0.50902 l -3.03228,-2.29339 c -1.5184,1.62673 -4.24687,3.52846 -7.37082,3.52846 -4.77291,0 -8.64234,-4.44443 -8.64234,-5.55554 0,-1.11111 3.86943,-5.55555 8.64234,-5.55555 z m -3.03576,6.38888 c 0.46007,0 0.83333,-0.37326 0.83333,-0.83333 0,-0.46042 -0.37326,-0.83333 -0.83333,-0.83333 -0.46041,0 -0.83333,0.37291 -0.83333,0.83333 0,0.46007 0.37326,0.83333 0.83333,0.83333 z"
       id="path901" />
    <path
       id="path903"
       d="m 152.01889,171.77029 c 3.12395,0 5.85207,1.90174 7.37047,3.52882 l 3.03228,-2.2934 c 0.42118,-0.31875 1.05,0.0208 0.94236,0.50903 l -0.83958,3.8111 0.83993,3.81145 c 0.10764,0.48819 -0.52118,0.82743 -0.94236,0.50902 l -3.03228,-2.29339 c -1.5184,1.62673 -4.24687,3.52846 -7.37082,3.52846 -4.77291,0 -8.64234,-4.44443 -8.64234,-5.55554 0,-1.11111 3.86943,-5.55555 8.64234,-5.55555 z m -3.03576,6.38888 c 0.46007,0 0.83333,-0.37326 0.83333,-0.83333 0,-0.46042 -0.37326,-0.83333 -0.83333,-0.83333 -0.46041,0 -0.83333,0.37291 -0.83333,0.83333 0,0.46007 0.37326,0.83333 0.83333,0.83333 z"
       style="fill:#e0e0e0;fill-opacity:1;stroke-width:0.26458332" />
    <path
       style="fill:#e0e0e0;fill-opacity:1;stroke-width:0.26458332"
       d="m 100.24613,199.69818 c 3.12395,0 5.85207,1.90174 7.37047,3.52882 l 3.03228,-2.2934 c 0.42118,-0.31875 1.05,0.0208 0.94236,0.50903 l -0.83958,3.8111 0.83993,3.81145 c 0.10764,0.48819 -0.52118,0.82743 -0.94236,0.50902 l -3.03228,-2.29339 c -1.5184,1.62673 -4.24687,3.52846 -7.37082,3.52846 -4.772907,0 -8.642338,-4.44443 -8.642338,-5.55554 0,-1.11111 3.869431,-5.55555 8.642338,-5.55555 z m -3.035757,6.38888 c 0.46007,0 0.83333,-0.37326 0.83333,-0.83333 0,-0.46042 -0.37326,-0.83333 -0.83333,-0.83333 -0.46041,0 -0.83333,0.37291 -0.83333,0.83333 0,0.46007 0.37326,0.83333 0.83333,0.83333 z"
       id="path905" />
    <path
       id="path907"
       d="m 99.188416,224.1165 c 3.123954,0 5.852074,1.90174 7.370474,3.52882 l 3.03228,-2.2934 c 0.42118,-0.31875 1.05,0.0208 0.94236,0.50903 l -0.83958,3.8111 0.83993,3.81145 c 0.10764,0.48819 -0.52118,0.82743 -0.94236,0.50902 l -3.03228,-2.29339 c -1.5184,1.62673 -4.24687,3.52846 -7.370824,3.52846 -4.772907,0 -8.642338,-4.44443 -8.642338,-5.55554 0,-1.11111 3.869431,-5.55555 8.642338,-5.55555 z m -3.035757,6.38888 c 0.46007,0 0.83333,-0.37326 0.83333,-0.83333 0,-0.46042 -0.37326,-0.83333 -0.83333,-0.83333 -0.46041,0 -0.83333,0.37291 -0.83333,0.83333 0,0.46007 0.37326,0.83333 0.83333,0.83333 z"
       style="fill:#e0e0e0;fill-opacity:1;stroke-width:0.26458332" />
    <path
       style="fill:#e0e0e0;fill-opacity:1;stroke-width:0.26458332"
       d="m 94.425256,242.56095 c 3.123954,0 5.852074,1.90174 7.370474,3.52882 l 3.03228,-2.2934 c 0.42118,-0.31875 1.05,0.0208 0.94236,0.50903 l -0.83958,3.8111 0.83993,3.81145 c 0.10764,0.48819 -0.52118,0.82743 -0.94236,0.50902 l -3.03228,-2.29339 c -1.5184,1.62673 -4.24687,3.52846 -7.370824,3.52846 -4.772907,0 -8.642338,-4.44443 -8.642338,-5.55554 0,-1.11111 3.869431,-5.55555 8.642338,-5.55555 z m -3.035757,6.38888 c 0.46007,0 0.83333,-0.37326 0.83333,-0.83333 0,-0.46042 -0.37326,-0.83333 -0.83333,-0.83333 -0.46041,0 -0.83333,0.37291 -0.83333,0.83333 0,0.46007 0.37326,0.83333 0.83333,0.83333 z"
       id="path909" />
    <path
       id="path911"
       d="m 124.05878,225.09834 c 3.12395,0 5.85207,1.90174 7.37047,3.52882 l 3.03228,-2.2934 c 0.42118,-0.31875 1.05,0.0208 0.94236,0.50903 l -0.83958,3.8111 0.83993,3.81145 c 0.10764,0.48819 -0.52118,0.82743 -0.94236,0.50902 l -3.03228,-2.29339 c -1.5184,1.62673 -4.24687,3.52846 -7.37082,3.52846 -4.77291,0 -8.64234,-4.44443 -8.64234,-5.55554 0,-1.11111 3.86943,-5.55555 8.64234,-5.55555 z m -3.03576,6.38888 c 0.46007,0 0.83333,-0.37326 0.83333,-0.83333 0,-0.46042 -0.37326,-0.83333 -0.83333,-0.83333 -0.46041,0 -0.83333,0.37291 -0.83333,0.83333 0,0.46007 0.37326,0.83333 0.83333,0.83333 z"
       style="fill:#e0e0e0;fill-opacity:1;stroke-width:0.26458332" />
    <path
       style="fill:#e0e0e0;fill-opacity:1;stroke-width:0.26458332"
       d="m 116.12185,211.41642 c 3.12395,0 5.85207,1.90174 7.37047,3.52882 l 3.03228,-2.2934 c 0.42118,-0.31875 1.05,0.0208 0.94236,0.50903 l -0.83958,3.8111 0.83993,3.81145 c 0.10764,0.48819 -0.52118,0.82743 -0.94236,0.50902 l -3.03228,-2.29339 c -1.5184,1.62673 -4.24687,3.52846 -7.37082,3.52846 -4.77291,0 -8.64234,-4.44443 -8.64234,-5.55554 0,-1.11111 3.86943,-5.55555 8.64234,-5.55555 z m -3.03576,6.38888 c 0.46007,0 0.83333,-0.37326 0.83333,-0.83333 0,-0.46042 -0.37326,-0.83333 -0.83333,-0.83333 -0.46041,0 -0.83333,0.37291 -0.83333,0.83333 0,0.46007 0.37326,0.83333 0.83333,0.83333 z"
       id="path913" />
    <path
       id="path915"
       d="m 124.05944,199.73924 c 3.12395,0 5.85207,1.90174 7.37047,3.52882 l 3.03228,-2.2934 c 0.42118,-0.31875 1.05,0.0208 0.94236,0.50903 l -0.83958,3.8111 0.83993,3.81145 c 0.10764,0.48819 -0.52118,0.82743 -0.94236,0.50902 l -3.03228,-2.29339 c -1.5184,1.62673 -4.24687,3.52846 -7.37082,3.52846 -4.77291,0 -8.64234,-4.44443 -8.64234,-5.55554 0,-1.11111 3.86943,-5.55555 8.64234,-5.55555 z m -3.03576,6.38888 c 0.46007,0 0.83333,-0.37326 0.83333,-0.83333 0,-0.46042 -0.37326,-0.83333 -0.83333,-0.83333 -0.46041,0 -0.83333,0.37291 -0.83333,0.83333 0,0.46007 0.37326,0.83333 0.83333,0.83333 z"
       style="fill:#e0e0e0;fill-opacity:1;stroke-width:0.26458332" />
    <g
       transform="matrix(0.36783021,0,0,-0.36783021,216.18689,231.24624)"
       id="g10"
       style="fill:#035aa6;fill-opacity:1;stroke-width:0.95907778">
      <g
         style="fill:#035aa6;fill-opacity:1;stroke-width:0.95907778"
         transform="matrix(0.71166319,0,0,0.71166319,-1.1190879,-12.931869)"
         id="g4622">
        <g
           style="fill:#035aa6;fill-opacity:1;stroke-width:0.95907778"
           id="g70"
           transform="translate(36.0391,98.8568)">
          <path
             d="m 0,0 c -15.435,0 -27.992,-12.557 -27.992,-27.992 0,-15.435 12.557,-27.992 27.992,-27.992 3.957,0 7.795,0.82 11.407,2.44 l 0.043,0.018 v 19.036 l 0.526,-0.14 c 1.934,-0.517 3.93,-0.828 5.933,-0.922 l 0.076,-0.004 v 4.289 l -0.068,0.003 c -2.577,0.138 -5.284,0.751 -8.045,1.822 l -0.254,0.099 c -1.58,0.626 -2.379,1.024 -2.412,1.04 l -0.105,0.053 v -22.362 l -0.298,-0.09 c -3.755,-1.129 -7.776,-1.3 -11.627,-0.502 l -0.333,0.07 v 12.303 h -4.349 v -10.888 l -0.597,0.282 c -8.267,3.904 -13.608,12.322 -13.608,21.445 0,2.813 0.517,5.557 1.466,8.129 0.018,0.049 0.038,0.096 0.056,0.145 0.162,0.43 0.334,0.855 0.521,1.274 0.128,0.292 0.26,0.582 0.4,0.868 0.061,0.123 0.125,0.244 0.187,0.367 0.177,0.344 0.361,0.684 0.554,1.019 0.035,0.06 0.069,0.121 0.104,0.18 2.021,3.445 4.89,6.325 8.316,8.374 -2.366,-7.461 -1.544,-15.72 2.485,-22.616 l 0.021,0.021 v -0.021 H 0 v 4.349 h -7.049 c -2.975,6.592 -2.767,14.266 0.59,20.718 1.461,0.415 2.98,0.696 4.542,0.824 0.01,10e-4 0.021,10e-4 0.032,0.002 0.636,0.051 1.278,0.085 1.927,0.085 13.1,0 23.718,-10.619 23.718,-23.718 0,-1.092 -0.062,-1.882 -0.181,-2.423 -0.522,-5.08 -2.67,-9.857 -6.196,-13.662 v -5.833 c 6.749,5.359 10.609,13.321 10.609,21.918 C 27.992,-12.557 15.435,0 0,0"
             style="fill:#035aa6;fill-opacity:1;fill-rule:nonzero;stroke:none;stroke-width:0.95907778"
             id="path72"
             />
        </g>
        <g
           style="fill:#035aa6;fill-opacity:1;stroke-width:0.95907778"
           id="g74"
           transform="translate(43.1396,78.6004)">
          <path
             d="m 0,0 c 0,-1.199 0.975,-2.174 2.174,-2.174 1.2,0 2.175,0.975 2.175,2.174 0,1.199 -0.975,2.175 -2.175,2.175 C 0.975,2.175 0,1.199 0,0"
             style="fill:#035aa6;fill-opacity:1;fill-rule:nonzero;stroke:none;stroke-width:0.95907778"
             id="path76"
             />
        </g>
      </g>
      <flowRoot
         style="font-style:normal;font-variant:normal;font-weight:normal;font-stretch:normal;font-size:40px;line-height:125%;font-family:'PT Sans';letter-spacing:0px;word-spacing:0px;fill:#035aa6;fill-opacity:1;stroke:none;stroke-width:0.95907778px;stroke-linecap:butt;stroke-linejoin:miter;stroke-opacity:1"
         id="flowRoot4707"
         xml:space="preserve"><flowRegion
           id="flowRegion4709"
           style="fill:#035aa6;fill-opacity:1;stroke-width:0.95907778px"><rect
             y="52.458042"
             x="16.690283"
             height="84.307327"
             width="307.2724"
             id="rect4711"
             style="fill:#035aa6;fill-opacity:1;stroke-width:0.95907778px" /></flowRegion><flowPara
           id="flowPara4713"
           style="stroke-width:0.95907778px;fill:#035aa6;fill-opacity:1" /></flowRoot>    </g>
  </g>
</svg>
