<?xml version="1.0" encoding="UTF-8" standalone="no"?>
<!-- Created with Inkscape (http://www.inkscape.org/) -->

<svg
   width="1600"
   height="900"
   viewBox="0 0 1500 843.74998"
   id="svg952">
  <g
     id="layer1"
     transform="translate(0,-63.361123)">
    <g
       style="fill:#E0E0E0;fill-opacity:1"
       id="g55"
       transform="matrix(2.8663319,0,0,-2.8663319,215.57449,843.58458)">
      <g
         style="fill:#E0E0E0;fill-opacity:1"
         id="g53">
        <g
           style="fill:#E0E0E0;fill-opacity:1"
           id="g51">
          <g
             style="fill:#E0E0E0;fill-opacity:1"
             id="g45"
             transform="translate(70.8667,113.2186)">
            <path
               d="M 11.751303,23.502607 C -18.174496,23.502607 -42.52,-0.84289746 -42.52,-30.768697 -42.52,-60.694496 -18.174496,-85.04 11.751303,-85.04 c 7.672268,0 15.112235,1.592911 22.115684,4.730232 l 0.08296,0.03701 c 4.818916,2.410569 7.66929,4.674072 11.503934,7.011107 13.084081,10.388386 20.567445,25.824819 20.567445,42.49295 0,29.92579954 -24.345504,54.271304 -54.270027,54.271304 m 13.765664,-98.126142 -0.57692,-0.173586 c -7.280421,-2.1877 -15.0752202,-2.52211 -22.5419917,-0.972595 l -0.6445675,0.134019 -8.4317081,2.742922 -1.1576687,0.546287 c -16.02867,7.570157 -26.385145,23.891116 -26.385145,41.577791 0,5.455211 1.003227,10.775126 2.843755,15.761908 0.03446,0.09317 0.07403,0.186351 0.108491,0.279526 0.313987,0.83347 0.648397,1.658006 1.008333,2.469778 0.250169,0.566709 0.505443,1.129588 0.77731,1.683534 0.117427,0.238681 0.241235,0.473533 0.363766,0.7109383 0.342068,0.6688185 0.699452,1.3261497 1.072152,1.9758226 0.06765,0.1174261 0.132743,0.2335759 0.201667,0.3510021 3.918459,6.67797409 9.482161,12.2608217 16.123121,16.2328889 l 10.94998819,4.7532061 c 2.83354411,0.80539 5.77685601,1.349125 8.80568491,1.596741 0.021698,0.0013 0.04212,0.0026 0.063819,0.0051 1.2342509,0.09956 2.4774359,0.163376 3.7359379,0.163376 25.395958,0 45.983825,-20.5878678 45.983825,-45.983826 0,-2.117499 -0.119979,-3.646592 -0.352278,-4.695769 -1.012162,-9.849757 -5.175685,-19.112383 -12.010653,-26.487255 -6.685018,-7.004509 -11.137996,-9.230996 -19.936918,-12.671814 z"
               style="fill:#E0E0E0;fill-opacity:1;fill-rule:nonzero;stroke:none;stroke-width:1.27637124"
               id="path43"/>
          </g>
          <g
             style="fill:#E0E0E0;fill-opacity:1"
             id="g49"
             transform="translate(81.6519,82.4496)" />
        </g>
      </g>
    </g>
    <g
       transform="matrix(2.8663319,0,0,-2.8663319,39.324495,843.58458)"
       id="g902"
       style="fill:#035aa6;fill-opacity:1">
      <g
         id="g904"
         style="fill:#035aa6;fill-opacity:1">
        <g
           id="g906"
           style="fill:#035aa6;fill-opacity:1">
          <g
             transform="translate(70.8667,113.2186)"
             id="g912"
             style="fill:#035aa6;fill-opacity:1">
            <path
               id="path914"
               style="fill:#035aa6;fill-opacity:1;fill-rule:nonzero;stroke:none"
               d="m 0,0 c -23.446,0 -42.52,-19.074 -42.52,-42.52 0,-23.446 19.074,-42.52 42.52,-42.52 6.011,0 11.84,1.248 17.327,3.706 l 0.065,0.029 v 28.915 l 0.799,-0.214 c 2.937,-0.785 5.97,-1.255 9.013,-1.4 l 0.114,-0.006 v 6.515 l -0.103,0.006 c -3.915,0.209 -8.026,1.14 -12.22,2.767 l -0.386,0.15 c -2.401,0.951 -3.613,1.555 -3.664,1.58 l -0.16,0.08 v -33.967 l -0.452,-0.136 c -5.704,-1.714 -11.811,-1.976 -17.661,-0.762 l -0.505,0.105 v 18.689 h -6.606 v -16.54 l -0.907,0.428 c -12.558,5.931 -20.672,18.718 -20.672,32.575 0,4.274 0.786,8.442 2.228,12.349 0.027,0.073 0.058,0.146 0.085,0.219 0.246,0.653 0.508,1.299 0.79,1.935 0.196,0.444 0.396,0.885 0.609,1.319 0.092,0.187 0.189,0.371 0.285,0.557 0.268,0.524 0.548,1.039 0.84,1.548 0.053,0.092 0.104,0.183 0.158,0.275 3.07,5.232 7.429,9.606 12.632,12.718 -3.593,-11.332 -2.346,-23.878 3.775,-34.353 l 0.033,0.033 v -0.033 H 0 v 6.606 h -10.708 c -4.519,10.014 -4.204,21.67 0.896,31.471 2.22,0.631 4.526,1.057 6.899,1.251 0.017,0.001 0.033,0.002 0.05,0.004 0.967,0.078 1.941,0.128 2.927,0.128 19.897,0 36.027,-16.13 36.027,-36.027 0,-1.659 -0.094,-2.857 -0.276,-3.679 -0.793,-7.717 -4.055,-14.974 -9.41,-20.752 v -8.861 c 10.251,8.139 16.114,20.233 16.114,33.292 C 42.519,-19.074 23.445,0 0,0" />
          </g>
          <g
             transform="translate(81.6519,82.4496)"
             id="g916"
             style="fill:#035aa6;fill-opacity:1">
            <path
               id="path918"
               style="fill:#035aa6;fill-opacity:1;fill-rule:nonzero;stroke:none"
               d="m 0,0 c 0,-1.822 1.482,-3.303 3.303,-3.303 1.822,0 3.303,1.481 3.303,3.303 0,1.821 -1.481,3.304 -3.303,3.304 C 1.482,3.304 0,1.821 0,0" />
          </g>
        </g>
      </g>
    </g>
    <g
       transform="matrix(4.2087807,0,0,-4.2087807,343.4811,882.39368)"
       id="g67"
       style="fill:#E0E0E0;fill-opacity:1">
      <g
         id="g65"
         style="fill:#E0E0E0;fill-opacity:1">
        <g
           id="g63"
           style="fill:#E0E0E0;fill-opacity:1">
          <g
             transform="translate(70.8667,113.2186)"
             id="g59"
             style="fill:#E0E0E0;fill-opacity:1">
            <path
               id="path57"
               style="fill:#E0E0E0;fill-opacity:1;fill-rule:nonzero;stroke:none;stroke-width:1.27637124"
               d="M 11.751303,23.502607 C -18.174496,23.502607 -42.52,-0.84289746 -42.52,-30.768697 -42.52,-60.694496 -18.174496,-85.04 11.751303,-85.04 c 7.672268,0 15.112235,1.592911 22.115684,4.730232 l 0.08296,0.03701 c 4.818916,2.410569 7.66929,4.674072 11.503934,7.011107 13.084081,10.388386 20.567445,25.824819 20.567445,42.49295 0,29.92579954 -24.345504,54.271304 -54.270027,54.271304 m 13.765664,-98.126142 -0.57692,-0.173586 c -7.280421,-2.1877 -15.0752202,-2.52211 -22.5419917,-0.972595 l -0.6445675,0.134019 -8.4317081,2.742922 -1.1576687,0.546287 c -16.02867,7.570157 -26.385145,23.891116 -26.385145,41.577791 0,5.455211 1.003227,10.775126 2.843755,15.761908 0.03446,0.09317 0.07403,0.186351 0.108491,0.279526 0.313987,0.83347 0.648397,1.658006 1.008333,2.469778 0.250169,0.566709 0.505443,1.129588 0.77731,1.683534 0.117427,0.238681 0.241235,0.473533 0.363766,0.7109383 0.342068,0.6688185 0.699452,1.3261497 1.072152,1.9758226 0.06765,0.1174261 0.132743,0.2335759 0.201667,0.3510021 3.918459,6.67797409 9.482161,12.2608217 16.123121,16.2328889 l 10.94998819,4.7532061 c 2.83354411,0.80539 5.77685601,1.349125 8.80568491,1.596741 0.021698,0.0013 0.04212,0.0026 0.063819,0.0051 1.2342509,0.09956 2.4774359,0.163376 3.7359379,0.163376 25.395958,0 45.983825,-20.5878678 45.983825,-45.983826 0,-2.117499 -0.119979,-3.646592 -0.352278,-4.695769 -1.012162,-9.849757 -5.175685,-19.112383 -12.010653,-26.487255 -6.685018,-7.004509 -11.137996,-9.230996 -19.936918,-12.671814 z" />
          </g>
          <g
             transform="translate(81.6519,82.4496)"
             id="g61"
             style="fill:#E0E0E0;fill-opacity:1" />
        </g>
      </g>
    </g>
    <path
       style="fill:#035aa6;fill-opacity:1;stroke-width:0.16739219"
       d="m 740.23132,539.48369 c -1.55839,0.10425 -2.98035,1.12614 -3.52295,2.70447 l -1.70838,4.96948 c -0.74614,2.13421 0.42277,4.45147 2.57996,5.13061 l 26.55578,8.41736 c -15.01282,7.63428 -30.02563,15.26856 -45.03845,22.90284 -104.42394,47.15633 -213.13536,64.02142 -332.937,71.99523 -2.08741,0.77401 -3.14522,3.07621 -2.37122,5.16357 l 1.86218,5.02259 c 0.77398,2.08732 3.07614,3.14524 5.16357,2.37121 124.11775,-10.22321 234.47195,-28.7266 335.12513,-74.01672 0.28496,-0.0679 0.56751,-0.16247 0.84228,-0.29663 10.94498,-5.21469 22.35753,-10.631 31.60949,-15.43579 l 11.61988,-5.6726 -9.6936,26.11815 c -0.77604,2.1114 0.33236,4.45801 2.4591,5.18922 l 4.97131,1.70837 c 2.08935,0.73097 4.37419,-0.38579 5.09766,-2.49024 l 14.96338,-43.51867 c 0.73084,-2.08933 -0.38584,-4.37586 -2.49023,-5.09949 l -43.51136,-14.94873 c -0.52233,-0.18274 -1.05707,-0.24899 -1.57653,-0.21423 z"
       id="path873"/>
    <g
       style="fill:#035aa6;fill-opacity:1"
       id="g849"
       transform="matrix(6.614612,0,0,-6.614612,610.55653,949.32319)">
      <g
         style="fill:#035aa6;fill-opacity:1"
         id="g847">
        <g
           style="fill:#035aa6;fill-opacity:1"
           id="g845">
          <g
             style="fill:#035aa6;fill-opacity:1"
             id="g839"
             transform="translate(70.8667,113.2186)">
            <path
               d="m 0,0 c -23.446,0 -42.52,-19.074 -42.52,-42.52 0,-23.446 19.074,-42.52 42.52,-42.52 6.011,0 11.84,1.248 17.327,3.706 l 0.065,0.029 v 28.915 l 0.799,-0.214 c 2.937,-0.785 5.97,-1.255 9.013,-1.4 l 0.114,-0.006 v 6.515 l -0.103,0.006 c -3.915,0.209 -8.026,1.14 -12.22,2.767 l -0.386,0.15 c -2.401,0.951 -3.613,1.555 -3.664,1.58 l -0.16,0.08 v -33.967 l -0.452,-0.136 c -5.704,-1.714 -11.811,-1.976 -17.661,-0.762 l -0.505,0.105 v 18.689 h -6.606 v -16.54 l -0.907,0.428 c -12.558,5.931 -20.672,18.718 -20.672,32.575 0,4.274 0.786,8.442 2.228,12.349 0.027,0.073 0.058,0.146 0.085,0.219 0.246,0.653 0.508,1.299 0.79,1.935 0.196,0.444 0.396,0.885 0.609,1.319 0.092,0.187 0.189,0.371 0.285,0.557 0.268,0.524 0.548,1.039 0.84,1.548 0.053,0.092 0.104,0.183 0.158,0.275 3.07,5.232 7.429,9.606 12.632,12.718 -3.593,-11.332 -2.346,-23.878 3.775,-34.353 l 0.033,0.033 v -0.033 H 0 v 6.606 h -10.708 c -4.519,10.014 -4.204,21.67 0.896,31.471 2.22,0.631 4.526,1.057 6.899,1.251 0.017,0.001 0.033,0.002 0.05,0.004 0.967,0.078 1.941,0.128 2.927,0.128 19.897,0 36.027,-16.13 36.027,-36.027 0,-1.659 -0.094,-2.857 -0.276,-3.679 -0.793,-7.717 -4.055,-14.974 -9.41,-20.752 v -8.861 c 10.251,8.139 16.114,20.233 16.114,33.292 C 42.519,-19.074 23.445,0 0,0"
               style="fill:#035aa6;fill-opacity:1;fill-rule:nonzero;stroke:none"
               id="path837"/>
          </g>
          <g
             style="fill:#035aa6;fill-opacity:1"
             id="g843"
             transform="translate(81.6519,82.4496)">
            <path
               d="m 0,0 c 0,-1.822 1.482,-3.303 3.303,-3.303 1.822,0 3.303,1.481 3.303,3.303 0,1.821 -1.481,3.304 -3.303,3.304 C 1.482,3.304 0,1.821 0,0"
               style="fill:#035aa6;fill-opacity:1;fill-rule:nonzero;stroke:none"
               id="path841"/>
          </g>
        </g>
      </g>
    </g>
  </g>
</svg>
